<svg xmlns="http://www.w3.org/2000/svg" width="600" height="250" viewBox="0 0 600 250">
  <g id="Group_1651" data-name="Group 1651" transform="translate(-963.21 -5314.214)">
    <path id="Path_703" data-name="Path 703" d="M1.92,40.81C.362,27.925.269,15.018,0,2.048c-.055-2.731,4.008-2.731,4.058,0,.225,12.959.625,25.843-.444,38.762a.847.847,0,1,1-1.694,0Z" transform="translate(1264.156 5410.951) rotate(180)" fill="#efa693"/>
    <path id="Path_704" data-name="Path 704" d="M.254,2.952.106,2.442c-.938-3.247,4.661-3.264,3.718,0l-.148.511a1.767,1.767,0,0,1-3.422,0Z" transform="translate(1263.938 5426.316) rotate(180)" fill="#efa693"/>
    <path id="Path_705" data-name="Path 705" d="M1.448.355,1.914.177c3.559-1.388,3.581,5.874,0,4.48l-.466-.184a2.189,2.189,0,0,1,0-4.119Z" transform="translate(1264.479 5442.334) rotate(180)" fill="#efa693"/>
    <path id="Path_706" data-name="Path 706" d="M1.38,0c1.842,0,1.842,2.994,0,2.994S-.463,0,1.38,0Z" transform="translate(1263.868 5460.801) rotate(180)" fill="#efa693"/>
    <path id="Path_707" data-name="Path 707" d="M1.824,0c2.429,0,2.435,3.952,0,3.952S-.611,0,1.824,0Z" transform="translate(1264.828 5491.738) rotate(180)" fill="#efa693"/>
    <path id="Path_708" data-name="Path 708" d="M1.5,0c2,0,2.007,3.253,0,3.253S-.5,0,1.5,0Z" transform="translate(1264.505 5517.42) rotate(180)" fill="#efa693"/>
    <path id="Path_713" data-name="Path 713" d="M3.765,16.2c-1.19-4.8-2.341-9.6-3.7-14.347C-.473-.027,2.537-.784,2.795,1.057,3.48,5.985,4.38,10.872,5.24,15.771c.17,1-1.223,1.434-1.475.425Z" transform="translate(1213.163 5397.139) rotate(180)" fill="#efa693"/>
    <path id="Path_714" data-name="Path 714" d="M1,4.308l-.3-.247C-.909,2.713.506,0,2.321,0S5.54,2.719,3.927,4.061l-.291.247A1.874,1.874,0,0,1,1,4.308Z" transform="translate(1217.948 5414.054) rotate(180)" fill="#efa693"/>
    <path id="Path_715" data-name="Path 715" d="M3.246,3.434l-.406.2A1.913,1.913,0,0,1,0,1.931,1.914,1.914,0,0,1,2.84.221l.406.2a1.8,1.8,0,0,1,0,3.012Z" transform="translate(1221.122 5428.003) rotate(180)" fill="#efa693"/>
    <path id="Path_716" data-name="Path 716" d="M1.688,0c2.254,0,2.254,3.66,0,3.66S-.565,0,1.688,0Z" transform="translate(1226.073 5454.485) rotate(180)" fill="#efa693"/>
    <path id="Path_717" data-name="Path 717" d="M1.476,0c1.963,0,1.969,3.19,0,3.19S-.492,0,1.476,0Z" transform="translate(1228.432 5463.113) rotate(180)" fill="#efa693"/>
    <path id="Path_718" data-name="Path 718" d="M1.949,8.761C1.565,7.574,1.186,6.381.792,5.2A8.394,8.394,0,0,1,.013,1.751C.139.105,2.272-.755,3.144.868c1.119,2.082.888,5.209,1.119,7.566.148,1.451-1.914,1.578-2.314.327Z" transform="translate(1232.173 5483.227) rotate(180)" fill="#efa693"/>
    <path id="Path_719" data-name="Path 719" d="M1.61,0c2.144,0,2.15,3.482,0,3.482S-.539,0,1.61,0Z" transform="translate(1235.777 5500.366) rotate(180)" fill="#efa693"/>
    <path id="Path_721" data-name="Path 721" d="M13.6,32.075C9,22.191,4.8,12.106.162,2.251-.644.547,1.785-.956,2.607.753A231.351,231.351,0,0,1,15.17,31.381c.3.958-1.146,1.618-1.574.694Z" transform="translate(1145.776 5373.952) rotate(180)" fill="#efa693"/>
    <path id="Path_722" data-name="Path 722" d="M1.663,0c2.215,0,2.215,3.6,0,3.6S-.557,0,1.663,0Z" transform="translate(1149.318 5381.907) rotate(180)" fill="#efa693"/>
    <path id="Path_723" data-name="Path 723" d="M1.812,0c2.407,0,2.413,3.924,0,3.924S-.607,0,1.812,0Z" transform="translate(1154.1 5393.145) rotate(180)" fill="#efa693"/>
    <path id="Path_724" data-name="Path 724" d="M1.555,0c2.073,0,2.078,3.367,0,3.367S-.518,0,1.555,0Z" transform="translate(1157.451 5401.176) rotate(180)" fill="#efa693"/>
    <path id="Path_725" data-name="Path 725" d="M1.877,0c2.5,0,2.506,4.067,0,4.067S-.629,0,1.877,0Z" transform="translate(1167.556 5423.124) rotate(180)" fill="#efa693"/>
    <path id="Path_726" data-name="Path 726" d="M9.037,20.772C5.939,14.863,2.7,9.121.165,2.908-.734.711,2.282-1.251,3.307.992c2.84,6.23,4.88,12.689,7.123,19.16a.769.769,0,0,1-1.393.62Z" transform="translate(1181.757 5454.646) rotate(180)" fill="#efa693"/>
    <path id="Path_727" data-name="Path 727" d="M2.062,0c2.753,0,2.758,4.474,0,4.474S-.69,0,2.062,0Z" transform="translate(1186.796 5464.862) rotate(180)" fill="#efa693"/>
    <path id="Path_728" data-name="Path 728" d="M.006,2.3l.038-.551a1.736,1.736,0,1,1,3.471,0l.044.551C3.735,4.7-.175,4.7.006,2.3Z" transform="translate(1194.237 5480.991) rotate(180)" fill="#efa693"/>
    <path id="Path_729" data-name="Path 729" d="M1.433,0c1.914,0,1.919,3.1,0,3.1S-.48,0,1.433,0Z" transform="translate(1204.191 5503.498) rotate(180)" fill="#efa693"/>
    <path id="Path_730" data-name="Path 730" d="M1.61,0c2.144,0,2.144,3.482,0,3.482S-.539,0,1.61,0Z" transform="translate(1064.814 5365.787) rotate(180)" fill="#efa693"/>
    <path id="Path_731" data-name="Path 731" d="M12.053,17.648C7.951,12.9,4.091,7.953.379,2.859-1.118.806,2.2-1.173,3.685.84c3.636,4.939,7.1,9.993,10.331,15.225.762,1.239-1.009,2.69-1.963,1.583Z" transform="translate(1083.367 5391.283) rotate(180)" fill="#efa693"/>
    <path id="Path_732" data-name="Path 732" d="M1.742,0c2.325,0,2.325,3.775,0,3.775S-.583,0,1.742,0Z" transform="translate(1090.181 5401.933) rotate(180)" fill="#efa693"/>
    <path id="Path_733" data-name="Path 733" d="M1.54,0C3.6,0,3.6,3.339,1.54,3.339S-.516,0,1.54,0Z" transform="translate(1095.644 5408.914) rotate(180)" fill="#efa693"/>
    <path id="Path_734" data-name="Path 734" d="M16.288,23.885A242.552,242.552,0,0,1,.347,2.746C-1.045.721,2.107-1.109,3.511.813A238.525,238.525,0,0,1,17.944,22.548c.609,1.056-.839,2.283-1.656,1.337Z" transform="translate(1118.457 5442.442) rotate(180)" fill="#efa693"/>
    <path id="Path_735" data-name="Path 735" d="M3.148,5.123A2.524,2.524,0,0,1,0,2.518,2.434,2.434,0,0,1,4.135.729L4.2.8a2.543,2.543,0,0,1,.362,2.92,2.838,2.838,0,0,0-.208.356c-.269-1.073-.537-2.14-.806-3.212l.126.063c1.738.866,1.206,3.723-.526,4.193Z" transform="translate(1125.551 5450.108) rotate(180)" fill="#efa693"/>
    <path id="Path_736" data-name="Path 736" d="M1.476,0c1.963,0,1.969,3.2,0,3.2S-.492,0,1.476,0Z" transform="translate(1132.138 5460.898) rotate(180)" fill="#efa693"/>
    <path id="Path_737" data-name="Path 737" d="M1.191.2,1.673.076c2.884-.752,2.9,4.371,0,3.614l-.483-.126A1.782,1.782,0,0,1,1.191.2Z" transform="translate(1143.625 5475.585) rotate(180)" fill="#efa693"/>
    <path id="Path_738" data-name="Path 738" d="M1.853,0c2.462,0,2.468,4,0,4s-2.473-4,0-4Z" transform="translate(1149.507 5485.118) rotate(180)" fill="#efa693"/>
    <path id="Path_739" data-name="Path 739" d="M1.7,0c2.27,0,2.27,3.689,0,3.689S-.571,0,1.7,0Z" transform="translate(986.639 5386.381) rotate(180)" fill="#efa693"/>
    <path id="Path_740" data-name="Path 740" d="M1.147.465,1.559.282A2.575,2.575,0,0,1,5.381,2.576,2.574,2.574,0,0,1,1.559,4.865l-.411-.184a2.51,2.51,0,0,1,0-4.216Z" transform="translate(1002.707 5398.188) rotate(180)" fill="#efa693"/>
    <path id="Path_741" data-name="Path 741" d="M1.676,0c2.232,0,2.237,3.631,0,3.631S-.561,0,1.676,0Z" transform="translate(1010.814 5403.522) rotate(180)" fill="#efa693"/>
    <path id="Path_742" data-name="Path 742" d="M1.894,0c2.517,0,2.522,4.09,0,4.09S-.634,0,1.894,0Z" transform="translate(1018.752 5409.843) rotate(180)" fill="#efa693"/>
    <path id="Path_743" data-name="Path 743" d="M18.345,16.074C12.231,12.207,5.519,8.261.436,2.943-.814,1.641.869-.86,2.388.3c5.818,4.457,10.934,9.8,16.851,14.169.921.677.1,2.232-.894,1.606Z" transform="translate(1045.337 5431.545) rotate(180)" fill="#efa693"/>
    <path id="Path_744" data-name="Path 744" d="M3.019.042a3.512,3.512,0,0,1,1.1.3C7.96,1.717,5,7.632,2.082,5.383A11.042,11.042,0,0,1,.711,4.2,2.5,2.5,0,0,1,3.019.042Z" transform="translate(1058.355 5441.311) rotate(180)" fill="#efa693"/>
    <path id="Path_745" data-name="Path 745" d="M1.261.119l.493-.08c2.977-.511,3,4.234,0,3.723l-.493-.086C-.417,3.389-.423.411,1.261.119Z" transform="translate(1071.116 5450.68) rotate(180)" fill="#efa693"/>
    <path id="Path_746" data-name="Path 746" d="M1.474,0c1.969,0,1.969,3.2,0,3.2S-.494,0,1.474,0Z" transform="translate(1079.1 5458.684) rotate(180)" fill="#efa693"/>
    <path id="Path_747" data-name="Path 747" d="M1.865,0c2.484,0,2.484,4.039,0,4.039S-.624,0,1.865,0Z" transform="translate(1088.758 5465.751) rotate(180)" fill="#efa693"/>
    <path id="Path_748" data-name="Path 748" d="M4.655,5.109A21.974,21.974,0,0,1,.449,2.637C-.807,1.489.827-.7,2.231.221A22.787,22.787,0,0,1,5.68,3.715.879.879,0,0,1,4.655,5.109Z" transform="translate(1102.832 5478.53) rotate(180)" fill="#efa693"/>
    <path id="Path_749" data-name="Path 749" d="M2.228.233A2.452,2.452,0,0,1,3.522,2.665c0,1.084-1.327,2.123-2.276,1.365A2.462,2.462,0,0,1,.013,1.564,1.488,1.488,0,0,1,2.228.233Z" transform="translate(1111.608 5486.309) rotate(180)" fill="#efa693"/>
    <path id="Path_753" data-name="Path 753" d="M2.108,0c2.8,0,2.808,4.561,0,4.561S-.705,0,2.108,0Z" transform="translate(1323.812 5359.127) rotate(180)" fill="#efa693"/>
    <path id="Path_754" data-name="Path 754" d="M.028,14.493C.894,10.117,1.179,4.638,3.307.709a1.416,1.416,0,0,1,2.638.751c-.088,4.515-2.517,9.385-3.91,13.613a1.044,1.044,0,1,1-2.007-.579Z" transform="translate(1321.118 5382.127) rotate(180)" fill="#efa693"/>
    <path id="Path_755" data-name="Path 755" d="M1.569,0c2.089,0,2.095,3.4,0,3.4S-.526,0,1.569,0Z" transform="translate(1315.037 5399.529) rotate(180)" fill="#efa693"/>
    <path id="Path_756" data-name="Path 756" d="M2.482,0c3.3,0,3.306,5.375,0,5.375S-.83,0,2.482,0Z" transform="translate(1313.373 5413.808) rotate(180)" fill="#efa693"/>
    <path id="Path_757" data-name="Path 757" d="M1.567.032,2.082,0c2.128-.12,2.128,3.574,0,3.453l-.515-.029a1.7,1.7,0,0,1,0-3.4Z" transform="translate(1308.855 5430.572) rotate(180)" fill="#efa693"/>
    <path id="Path_758" data-name="Path 758" d="M.036,15.167C.6,12.637,1.084,10.1,1.676,7.577c.532-2.272.823-4.819,2-6.826a1.513,1.513,0,0,1,2.818.8C6.468,3.917,5.432,6.223,4.725,8.461c-.773,2.461-1.656,4.893-2.462,7.343a1.158,1.158,0,1,1-2.226-.637Z" transform="translate(1304.692 5460.898) rotate(180)" fill="#efa693"/>
    <path id="Path_759" data-name="Path 759" d="M1.849,0c2.468,0,2.473,4,0,4s-2.468-4,0-4Z" transform="translate(1298.839 5474.597) rotate(180)" fill="#efa693"/>
    <path id="Path_760" data-name="Path 760" d="M1.984,0c2.643,0,2.649,4.3,0,4.3S-.664,0,1.984,0Z" transform="translate(1296.913 5484.711) rotate(180)" fill="#efa693"/>
    <path id="Path_761" data-name="Path 761" d="M1.89,0c2.517,0,2.522,4.1,0,4.1S-.633,0,1.89,0Z" transform="translate(1291.154 5509.533) rotate(180)" fill="#efa693"/>
    <path id="Path_762" data-name="Path 762" d="M1.742,0c2.325,0,2.33,3.775,0,3.775S-.583,0,1.742,0Z" transform="translate(1288.434 5520.449) rotate(180)" fill="#efa693"/>
    <path id="Path_763" data-name="Path 763" d="M.053,24.912C2.757,16.939,5.208,8.345,9.139.928a1.873,1.873,0,0,1,3.4,1.5C9.984,10.491,5.613,18.206,1.83,25.7a.98.98,0,0,1-1.777-.786Z" transform="translate(1399.737 5340.396) rotate(180)" fill="#efa693"/>
    <path id="Path_764" data-name="Path 764" d="M.163,2.882l-.1-.522a1.861,1.861,0,1,1,3.586,0l-.1.522a1.744,1.744,0,0,1-3.378,0Z" transform="translate(1387.926 5350.381) rotate(180)" fill="#efa693"/>
    <path id="Path_765" data-name="Path 765" d="M2.169.054,2.685.008c2.945-.247,2.95,5.042,0,4.8l-.515-.046a2.36,2.36,0,0,1,0-4.7Z" transform="translate(1380.517 5370.884) rotate(180)" fill="#efa693"/>
    <path id="Path_766" data-name="Path 766" d="M.284,1.383A2.473,2.473,0,0,1,2.017.035,1.9,1.9,0,0,1,4.254,2.376a2.553,2.553,0,0,1-1.272,1.83C1.37,5.393-.78,3.058.284,1.383Z" transform="translate(1377.76 5377.547) rotate(180)" fill="#efa693"/>
    <path id="Path_767" data-name="Path 767" d="M.059,21.147C2.356,14.269,4.692,6.846,8.5.7,9.353-.7,11.782.157,11.185,1.878,8.778,8.82,5.093,15.371,2.088,22.042c-.532,1.187-2.446.35-2.029-.895Z" transform="translate(1367.489 5420.883) rotate(180)" fill="#efa693"/>
    <path id="Path_768" data-name="Path 768" d="M.508,3.4l-.269-.39a1.885,1.885,0,0,1,0-1.836L.459.757a1.466,1.466,0,0,1,2.566,0l.219.419a1.871,1.871,0,0,1,0,1.836l-.269.39a1.419,1.419,0,0,1-2.468,0Z" transform="translate(1355.376 5430.937) rotate(180)" fill="#efa693"/>
    <path id="Path_769" data-name="Path 769" d="M.258,1.493A3.111,3.111,0,0,1,1.464.26,1.918,1.918,0,0,1,4.009,2.921,3.052,3.052,0,0,1,2.841,4.195C1.256,5.291-.713,3.139.258,1.493Z" transform="translate(1351.918 5443.519) rotate(180)" fill="#efa693"/>
    <path id="Path_770" data-name="Path 770" d="M2.05.033,2.566,0c2.769-.161,2.775,4.658,0,4.5L2.05,4.473a2.227,2.227,0,0,1,0-4.44Z" transform="translate(1344.871 5463.771) rotate(180)" fill="#efa693"/>
    <path id="Path_771" data-name="Path 771" d="M.116,2.822.034,2.289a1.807,1.807,0,1,1,3.482,0l-.082.534a1.712,1.712,0,0,1-3.318,0Z" transform="translate(1340.99 5472.722) rotate(180)" fill="#efa693"/>
    <path id="Path_772" data-name="Path 772" d="M1.651,0c2.193,0,2.2,3.568,0,3.568S-.553,0,1.651,0Z" transform="translate(1328.504 5502.07) rotate(180)" fill="#efa693"/>
    <path id="Path_773" data-name="Path 773" d="M1.958,0c2.61,0,2.61,4.239,0,4.239S-.653,0,1.958,0Z" transform="translate(1326.239 5511.822) rotate(180)" fill="#efa693"/>
    <path id="Path_774" data-name="Path 774" d="M.977,0a1.065,1.065,0,0,1,0,2.123A1.065,1.065,0,0,1,.977,0Z" transform="translate(1321.14 5521.838) rotate(180)" fill="#efa693"/>
    <path id="Path_775" data-name="Path 775" d="M.145,16.528c1.618-2.88,3.241-5.731,4.979-8.536C6.7,5.45,8.14,2.49,10.284.425c1.1-1.05,3.449-.029,2.764,1.681-1.206,3.012-3.438,5.57-5.308,8.169-1.886,2.61-3.86,5.134-5.851,7.658C1.072,18.966-.48,17.64.145,16.528Z" transform="translate(1472.1 5364.514) rotate(180)" fill="#efa693"/>
    <path id="Path_776" data-name="Path 776" d="M.107,26.211C5.157,16.654,12.3,8.881,18.641.31,19.293-.567,20.757.6,20.127,1.5,13.985,10.24,8.793,19.551,1.4,27.249c-.663.694-1.738-.184-1.289-1.038Z" transform="translate(1454.674 5400.379) rotate(180)" fill="#efa693"/>
    <path id="Path_777" data-name="Path 777" d="M.3,1.7l.411-.62c1.936-2.954,5.774.883,2.923,3.058l-.581.442C1.431,5.814-.812,3.382.3,1.7Z" transform="translate(1428.79 5413.879) rotate(180)" fill="#efa693"/>
    <path id="Path_778" data-name="Path 778" d="M1.581,0c2.106,0,2.111,3.425,0,3.425S-.53,0,1.581,0Z" transform="translate(1421.642 5422.802) rotate(180)" fill="#efa693"/>
    <path id="Path_779" data-name="Path 779" d="M.431,1.307A3.571,3.571,0,0,1,1.7.257C3.946-.988,5.947,2.632,3.683,3.819A4.675,4.675,0,0,1,1.659,4.4c-1.64.12-2.095-2-1.228-3.1Z" transform="translate(1405.757 5446.94) rotate(180)" fill="#efa693"/>
    <path id="Path_780" data-name="Path 780" d="M.614,4.5.383,4.13A2.752,2.752,0,0,1,3.01.028,2.81,2.81,0,0,1,4.523,4.692l-.291.3A2.274,2.274,0,0,1,.614,4.5Z" transform="translate(1400.479 5456.492) rotate(180)" fill="#efa693"/>
    <path id="Path_781" data-name="Path 781" d="M1.951.056l.488.109a1.605,1.605,0,0,1,0,3.029L1.951,3.3c-2.594.6-2.61-3.849,0-3.247Z" transform="translate(1389.66 5469.29) rotate(180)" fill="#efa693"/>
    <path id="Path_782" data-name="Path 782" d="M.129,18.074C3.55,11.981,7.016,5.453,11.819.4A1.416,1.416,0,0,1,14,2.16c-3.827,5.823-8.538,11-12.4,16.808a.858.858,0,0,1-1.464-.895Z" transform="translate(1379.781 5499.463) rotate(180)" fill="#efa693"/>
    <path id="Path_783" data-name="Path 783" d="M.49.947A2.255,2.255,0,0,1,1.882.052,1.785,1.785,0,0,1,4,2.266,2.427,2.427,0,0,1,3.16,3.741C1.285,5.41-1.024,2.915.49.947Z" transform="translate(1362.667 5508.719) rotate(180)" fill="#efa693"/>
    <path id="Path_784" data-name="Path 784" d="M1.435,0c1.908,0,1.914,3.1,0,3.1S-.478,0,1.435,0Z" transform="translate(1351.977 5523.989) rotate(180)" fill="#efa693"/>
    <path id="Path_785" data-name="Path 785" d="M1.382,0c1.837,0,1.842,2.994,0,2.994S-.461,0,1.382,0Z" transform="translate(1346.774 5530.58) rotate(180)" fill="#efa693"/>
    <path id="Path_786" data-name="Path 786" d="M.211,15.777C5.568,10.516,10.794,5.193,16.557.408c1.634-1.354,3.97.969,2.336,2.444C13.223,7.958,7.147,12.392,1.1,16.987c-.68.516-1.5-.62-.894-1.21Z" transform="translate(1515.836 5423.922) rotate(180)" fill="#efa693"/>
    <path id="Path_787" data-name="Path 787" d="M1.738.067,2.319.01c2.391-.241,2.4,4.13,0,3.889l-.581-.057a1.894,1.894,0,0,1,0-3.775Z" transform="translate(1492.441 5431.881) rotate(180)" fill="#efa693"/>
    <path id="Path_788" data-name="Path 788" d="M1.53,0c2.034,0,2.04,3.31,0,3.31S-.51,0,1.53,0Z" transform="translate(1482.961 5440.93) rotate(180)" fill="#efa693"/>
    <path id="Path_789" data-name="Path 789" d="M2.046.086,2.627.017c2.818-.356,2.824,4.939,0,4.583l-.581-.069a2.231,2.231,0,0,1,0-4.446Z" transform="translate(1478.268 5445.943) rotate(180)" fill="#efa693"/>
    <path id="Path_790" data-name="Path 790" d="M.249,17.931C6.621,12.154,12.658,5.97,19.194.383c1.448-1.239,3.52.809,2.1,2.2C15.027,8.718,8.1,13.915,1.258,19.3c-.751.591-1.722-.723-1.009-1.365Z" transform="translate(1458.655 5477.94) rotate(180)" fill="#efa693"/>
    <path id="Path_791" data-name="Path 791" d="M1.384,0c1.837,0,1.842,2.994,0,2.994S-.464,0,1.384,0Z" transform="translate(1432.998 5485.003) rotate(180)" fill="#efa693"/>
    <path id="Path_793" data-name="Path 793" d="M1.343.141,1.9.043c3.175-.562,3.2,4.543,0,3.975l-.554-.1C-.445,3.606-.45.456,1.343.141Z" transform="translate(1563.21 5451.896) rotate(180)" fill="#efa693"/>
    <path id="Path_794" data-name="Path 794" d="M1.822,0c2.429,0,2.435,3.952,0,3.952S-.607,0,1.822,0Z" transform="translate(1551.609 5459.94) rotate(180)" fill="#efa693"/>
    <path id="Path_795" data-name="Path 795" d="M.043,2.447.005,1.822C-.159-.6,3.772-.61,3.613,1.822l-.044.625a1.763,1.763,0,1,1-3.526,0Z" transform="translate(1545.8 5463.524) rotate(180)" fill="#efa693"/>
    <path id="Path_796" data-name="Path 796" d="M2.8.273,3.487.7C6.53,2.556,2.269,6.847.619,3.7l-.384-.74C-.653,1.259,1.145-.737,2.8.273Z" transform="translate(1529.624 5474.881) rotate(180)" fill="#efa693"/>
    <path id="Path_797" data-name="Path 797" d="M.232,16.662C8.315,10.707,16.6,4.627,25.544.164a1.468,1.468,0,0,1,1.431,2.559C18.355,7.9,9.351,12.348.753,17.591c-.581.35-1.053-.539-.521-.929Z" transform="translate(1513.977 5497.845) rotate(180)" fill="#efa693"/>
    <path id="Path_798" data-name="Path 798" d="M1.45,0c1.925,0,1.93,3.138,0,3.138S-.486,0,1.45,0Z" transform="translate(1481.142 5503.143) rotate(180)" fill="#efa693"/>
    <path id="Path_806" data-name="Path 806" d="M1.717,0C4,0,4.009,3.717,1.717,3.717S-.575,0,1.717,0Z" transform="translate(1534.703 5392.536) rotate(180)" fill="#efa693"/>
    <path id="Path_807" data-name="Path 807" d="M1.5,0c2,0,2,3.253,0,3.253S-.5,0,1.5,0Z" transform="translate(1543.756 5384.832) rotate(180)" fill="#efa693"/>
    <path id="Path_809" data-name="Path 809" d="M2.945,3.922l-.554.1c-3.18.562-3.2-4.543,0-3.975l.554.1c1.788.316,1.788,3.465,0,3.78Z" transform="translate(973.688 5451.896) rotate(180)" fill="#efa693"/>
    <path id="Path_810" data-name="Path 810" d="M1.824,0c2.429,0,2.435,3.952,0,3.952S-.611,0,1.824,0Z" transform="translate(984.652 5459.94) rotate(180)" fill="#efa693"/>
    <path id="Path_811" data-name="Path 811" d="M.043,2.447.005,1.822C-.16-.6,3.778-.61,3.613,1.822l-.044.625a1.763,1.763,0,1,1-3.526,0Z" transform="translate(990.428 5463.524) rotate(180)" fill="#efa693"/>
    <path id="Path_812" data-name="Path 812" d="M4.33,2.955,3.94,3.7C2.306,6.827-1.987,2.565,1.073.7L1.763.271c1.65-1,3.454.987,2.566,2.685Z" transform="translate(1007.551 5474.879) rotate(180)" fill="#efa693"/>
    <path id="Path_813" data-name="Path 813" d="M26.9,17.618C18.118,12.839,9.065,8.261.68,2.749A1.467,1.467,0,0,1,2.106.19c8.784,4.79,16.955,10.951,25.312,16.5a.532.532,0,0,1-.516.929Z" transform="translate(1046.289 5497.871) rotate(180)" fill="#efa693"/>
    <path id="Path_815" data-name="Path 815" d="M4.951,3.456a3.378,3.378,0,0,1-2.917.975,2.213,2.213,0,0,1,0-4.411A3.368,3.368,0,0,1,4.951.989a1.821,1.821,0,0,1,0,2.467Z" transform="translate(968.642 5512.519) rotate(180)" fill="#efa693"/>
    <path id="Path_816" data-name="Path 816" d="M1.581,0c2.111,0,2.111,3.425,0,3.425S-.53,0,1.581,0Z" transform="translate(976.3 5515.746) rotate(180)" fill="#efa693"/>
    <path id="Path_817" data-name="Path 817" d="M13.657,7.584C9.555,5.754,4.11,5.134.524,2.3-.491,1.492.052-.31,1.434.046A32.494,32.494,0,0,1,7.669,2.9C9.9,4.021,12.127,5.192,14.315,6.4c.762.424.093,1.514-.658,1.182Z" transform="translate(1006.574 5528.894) rotate(180)" fill="#efa693"/>
    <path id="Path_823" data-name="Path 823" d="M1.69,0c2.248,0,2.254,3.66,0,3.66S-.563,0,1.69,0Z" transform="translate(1563.058 5369.458) rotate(180)" fill="#efa693"/>
    <path id="Path_827" data-name="Path 827" d="M1.929,0c2.577,0,2.577,4.182,0,4.182S-.643,0,1.929,0Z" transform="translate(1057.374 5504.812) rotate(180)" fill="#efa693"/>
    <path id="Path_828" data-name="Path 828" d="M2.186,0C5.1,0,5.1,4.733,2.186,4.733S-.731,0,2.186,0Z" transform="translate(1070.583 5512.344) rotate(180)" fill="#efa693"/>
    <path id="Path_829" data-name="Path 829" d="M1.207,0a1.312,1.312,0,0,1,0,2.616A1.312,1.312,0,0,1,1.207,0Z" transform="translate(1080.248 5517.271) rotate(180)" fill="#efa693"/>
    <path id="Path_830" data-name="Path 830" d="M1.69,0c2.248,0,2.254,3.66,0,3.66S-.563,0,1.69,0Z" transform="translate(1017.117 5534.441) rotate(180)" fill="#efa693"/>
    <path id="Path_831" data-name="Path 831" d="M1.472,0c1.969,0,1.969,3.2,0,3.2S-.491,0,1.472,0Z" transform="translate(1030.932 5539.672) rotate(180)" fill="#efa693"/>
    <path id="Path_832" data-name="Path 832" d="M1.207,0a1.312,1.312,0,0,1,0,2.616A1.312,1.312,0,0,1,1.207,0Z" transform="translate(1036.227 5542.243) rotate(180)" fill="#efa693"/>
    <path id="Path_833" data-name="Path 833" d="M1.4,0c1.853,0,1.859,3.023,0,3.023S-.468,0,1.4,0Z" transform="translate(1061.327 5551.811) rotate(180)" fill="#efa693"/>
    <path id="Path_834" data-name="Path 834" d="M3.533,1.306l.066.241C4.449,4.6-.76,4.621.1,1.547l.066-.241a1.742,1.742,0,0,1,3.372,0Z" transform="translate(1081.856 5559.634) rotate(180)" fill="#efa693"/>
    <path id="Path_837" data-name="Path 837" d="M1.59.091l.362.126a1.276,1.276,0,0,1,0,2.4l-.362.126C-.522,3.493-.538-.66,1.59.091Z" transform="translate(1421.381 5495.025) rotate(180)" fill="#efa693"/>
    <path id="Path_838" data-name="Path 838" d="M2.96,2.467l-.2.287a1.328,1.328,0,0,1-2.3,0l-.2-.287A1.654,1.654,0,0,1,1.606,0,1.65,1.65,0,0,1,2.96,2.467Z" transform="translate(1338.691 5543.608) rotate(180)" fill="#efa693"/>
    <path id="Path_839" data-name="Path 839" d="M1.168,0a1.266,1.266,0,0,1,0,2.524A1.266,1.266,0,0,1,1.168,0Z" transform="translate(1331.591 5555.528) rotate(180)" fill="#efa693"/>
    <path id="Path_840" data-name="Path 840" d="M2.484.245l.285.184a1.568,1.568,0,0,1,0,2.61l-.285.189A1.666,1.666,0,0,1,0,1.736,1.664,1.664,0,0,1,2.484.245Z" transform="translate(1315.228 5540.015) rotate(180)" fill="#efa693"/>
    <path id="Path_841" data-name="Path 841" d="M1.26,0a1.37,1.37,0,0,1,0,2.731A1.37,1.37,0,0,1,1.26,0Z" transform="translate(1307.002 5557.68) rotate(180)" fill="#efa693"/>
    <path id="Path_842" data-name="Path 842" d="M2.121,2.226l-.2.207a.949.949,0,0,1-1.371,0l-.2-.207A1.326,1.326,0,0,1,1.238,0a1.327,1.327,0,0,1,.883,2.226Z" transform="translate(1283.473 5540.814) rotate(180)" fill="#efa693"/>
    <path id="Path_843" data-name="Path 843" d="M1.088,0a1.18,1.18,0,0,1,0,2.352A1.18,1.18,0,0,1,1.088,0Z" transform="translate(1264.125 5528.802) rotate(180)" fill="#efa693"/>
    <path id="Path_844" data-name="Path 844" d="M1.649,0c2.2,0,2.2,3.574,0,3.574S-.55,0,1.649,0Z" transform="translate(1240.005 5520.805) rotate(180)" fill="#efa693"/>
    <path id="Path_845" data-name="Path 845" d="M1.047,0a1.137,1.137,0,0,1,0,2.266A1.137,1.137,0,0,1,1.047,0Z" transform="translate(1242.929 5535.313) rotate(180)" fill="#efa693"/>
    <path id="Path_846" data-name="Path 846" d="M2.494,0c3.323,0,3.328,5.4,0,5.4S-.834,0,2.494,0Z" transform="translate(1209.507 5520.077) rotate(180)" fill="#efa693"/>
    <path id="Path_847" data-name="Path 847" d="M1.154,0a1.252,1.252,0,0,1,0,2.5,1.252,1.252,0,0,1,0-2.5Z" transform="translate(1212.476 5528.463) rotate(180)" fill="#efa693"/>
    <path id="Path_848" data-name="Path 848" d="M1.649,0c2.2,0,2.2,3.574,0,3.574S-.55,0,1.649,0Z" transform="translate(1160.084 5499.081) rotate(180)" fill="#efa693"/>
    <path id="Path_849" data-name="Path 849" d="M1.195,0a1.3,1.3,0,0,1,0,2.581A1.3,1.3,0,0,1,1.195,0Z" transform="translate(1168.639 5510.881) rotate(180)" fill="#efa693"/>
    <path id="Path_850" data-name="Path 850" d="M2.363,0c3.142,0,3.148,5.111,0,5.111S-.79,0,2.363,0Z" transform="translate(1124.36 5499.029) rotate(180)" fill="#efa693"/>
    <path id="Path_851" data-name="Path 851" d="M1.193,0a1.3,1.3,0,0,1,0,2.587A1.3,1.3,0,0,1,1.193,0Z" transform="translate(1132.205 5508.426) rotate(180)" fill="#efa693"/>
    <path id="Path_852" data-name="Path 852" d="M1.723.276l.291.189a1.111,1.111,0,0,1,0,1.853l-.291.189c-2.3,1.509-2.3-3.74,0-2.232Z" transform="translate(1094.11 5526.146) rotate(180)" fill="#efa693"/>
    <path id="Path_853" data-name="Path 853" d="M1.715.241l.291.172a1.112,1.112,0,0,1,0,1.859l-.291.172c-2.287,1.365-2.287-3.568,0-2.2Z" transform="translate(1090.971 5564.214) rotate(180)" fill="#efa693"/>
  </g>
</svg>
