<svg id="Layer_1" data-name="Layer 1" xmlns="http://www.w3.org/2000/svg" viewBox="0 0 216 216"><defs><style>.cls-1{fill:#72352a;}.cls-2{fill:#fafbec;}.cls-3{fill:#b16532;}.cls-4{fill:#d7944b;opacity:0.8;}.cls-5{fill:#663326;}</style></defs><path class="cls-1" d="M211.31,110.55,211,110a6,6,0,0,1,0-4.08l.27-.51,1.84-3.62a3.14,3.14,0,0,0,.48-1.91A3,3,0,0,0,213,98.1a40.19,40.19,0,0,0-2.46-3.29l-.37-.46a4.72,4.72,0,0,1-.62-4l.22-.55c.45-1.27,1-2.59,1.35-3.87a3.06,3.06,0,0,0,.1-1.94,3.12,3.12,0,0,0-1-1.68l-2.84-2.91-.4-.4a5.28,5.28,0,0,1-1-1.83,4.42,4.42,0,0,1-.27-2.06l.11-.57.69-4a3.15,3.15,0,0,0-.12-2A2.88,2.88,0,0,0,205.14,67l-3.4-2.37-.48-.33a4.81,4.81,0,0,1-1.78-3.68l0-.59a32.45,32.45,0,0,0,0-4.06,3.13,3.13,0,0,0-.48-1.89,3.1,3.1,0,0,0-1.47-1.31l-3.55-1.93-.5-.26a4.63,4.63,0,0,1-1.6-1.38,4.24,4.24,0,0,1-.85-1.9l-.07-.58-.51-4.07a3.18,3.18,0,0,0-.69-1.86,3.23,3.23,0,0,0-1.7-1l-3.9-1.28-.55-.17A4.42,4.42,0,0,1,182,37.11a4.94,4.94,0,0,1-1-1.83l-.16-.55-1.23-3.84a3.33,3.33,0,0,0-2.77-2.52,34.44,34.44,0,0,0-4-.72l-.59-.07a4.52,4.52,0,0,1-1.92-.86,4.42,4.42,0,0,1-1.36-1.59l-.23-.54L167,20.82a3,3,0,0,0-1.28-1.45,3.15,3.15,0,0,0-1.91-.49l-4.08-.11h-.57a4.39,4.39,0,0,1-2-.66,4.63,4.63,0,0,1-1.62-1.31l-.31-.47L152.92,13a3.18,3.18,0,0,0-1.45-1.33,3,3,0,0,0-1.92-.29c-1.36.14-2.75.41-4.09.62l-.57.1a4.49,4.49,0,0,1-2.08-.27A4.31,4.31,0,0,1,141,10.66l-.38-.45-1.35-1.57c-.46-.49-.95-.94-1.43-1.42a3.07,3.07,0,0,0-1.66-1,3.11,3.11,0,0,0-2,.09l-3.91,1.09-.55.16a6.55,6.55,0,0,1-2.09.06,4.43,4.43,0,0,1-1.94-.77l-.45-.36-3.21-2.54a3.2,3.2,0,0,0-1.78-.85,2.66,2.66,0,0,0-1.92.35L114.7,5.26l-.52.27a4.31,4.31,0,0,1-2.06.36,4.45,4.45,0,0,1-2-.57l-.5-.31A32,32,0,0,0,106,3a3,3,0,0,0-1.89-.48,3.16,3.16,0,0,0-1.85.67L98.91,5.4l-.47.32a6.15,6.15,0,0,1-2,.69,4.34,4.34,0,0,1-2.08-.15l-.53-.21L90,4.58a3.15,3.15,0,0,0-2-.27,2.57,2.57,0,0,0-1.73.91l-3,2.85-.41.41a4.33,4.33,0,0,1-1.86.95A4.47,4.47,0,0,1,79,9.5l-.57-.16a40,40,0,0,0-4-.8,3.38,3.38,0,0,0-3.52,1.29l-2.58,3.1a4.27,4.27,0,0,0-.35.46,4.62,4.62,0,0,1-1.65,1.31,4.41,4.41,0,0,1-2,.46l-.58-.05-4.1-.27a3,3,0,0,0-3.28,1.8l-2,3.58-.27.51a4.44,4.44,0,0,1-1.5,1.45,4.91,4.91,0,0,1-2,.68l-.56.06-4,.47a3.18,3.18,0,0,0-1.85.67A3.12,3.12,0,0,0,43,25.63a35.85,35.85,0,0,0-1.47,3.79L41.3,30a4.83,4.83,0,0,1-3,2.76l-.57.12c-1.33.29-2.69.59-4,.94a3,3,0,0,0-1.67,1,3.22,3.22,0,0,0-.85,1.78l-.88,4-.11.56a4.41,4.41,0,0,1-1,1.81,4.44,4.44,0,0,1-1.59,1.34l-.53.22-3.74,1.61a3.23,3.23,0,0,0-1.59,1.17A3,3,0,0,0,21,49.08c-.1,1.37-.12,2.77-.17,4.12v.58a4.39,4.39,0,0,1-.66,2,4.53,4.53,0,0,1-1.47,1.51l-.51.29a31,31,0,0,0-3.46,2.16,3.35,3.35,0,0,0-1.62,3.36l.3,4,.06.57a5.37,5.37,0,0,1-.31,2.08,4.42,4.42,0,0,1-1.13,1.75l-.45.36L8.48,74.54a3.21,3.21,0,0,0-1.19,1.58,2.78,2.78,0,0,0,0,2l1.07,4,.16.56a4.38,4.38,0,0,1-.06,2.09,4.44,4.44,0,0,1-1,1.87L7.12,87c-.89,1-1.7,2.06-2.55,3.12A3.34,3.34,0,0,0,4,93.82c.5,1.27,1,2.52,1.49,3.75l.27.52a4.73,4.73,0,0,1,.36,2.08,4.3,4.3,0,0,1-.57,2l-.32.49L3,106.13a3,3,0,0,0,0,3.74l2.2,3.46.32.49a4.33,4.33,0,0,1,.57,2,4.73,4.73,0,0,1-.36,2.08l-.27.52c-.51,1.23-1,2.48-1.49,3.75a3.34,3.34,0,0,0,.57,3.69c.85,1.06,1.66,2.11,2.55,3.12l.41.43a4.44,4.44,0,0,1,1,1.87,4.38,4.38,0,0,1,.06,2.09l-.16.56-1.07,4a2.78,2.78,0,0,0,0,2,3.21,3.21,0,0,0,1.19,1.58l3.13,2.66.45.36a4.42,4.42,0,0,1,1.13,1.75,5.37,5.37,0,0,1,.31,2.08l-.06.57-.3,4a3.08,3.08,0,0,0,.3,1.94,3.12,3.12,0,0,0,1.32,1.43,32.46,32.46,0,0,0,3.46,2.15l.51.29a4.53,4.53,0,0,1,1.47,1.51,4.39,4.39,0,0,1,.66,2v.58c.05,1.35.07,2.75.17,4.12a3,3,0,0,0,.65,1.83,3.23,3.23,0,0,0,1.59,1.17L27,171.53l.53.22a4.44,4.44,0,0,1,1.59,1.34,4.41,4.41,0,0,1,1,1.81l.11.56.88,4a3.22,3.22,0,0,0,.85,1.78,3,3,0,0,0,1.67,1c1.34.35,2.7.65,4,.94l.57.12a4.83,4.83,0,0,1,3,2.76l.18.56A35.85,35.85,0,0,0,43,190.37a3.36,3.36,0,0,0,3,2.24l4,.47.56.06a4.91,4.91,0,0,1,2,.68,4.44,4.44,0,0,1,1.5,1.45l.27.51,2,3.58a3.13,3.13,0,0,0,1.32,1.47,3.07,3.07,0,0,0,2,.33l4.1-.27.58,0a4.54,4.54,0,0,1,2,.46A4.73,4.73,0,0,1,68,202.61a4.27,4.27,0,0,0,.35.46l2.58,3.1a3.12,3.12,0,0,0,1.57,1.18,3.05,3.05,0,0,0,2,.11,40,40,0,0,0,4-.8l.57-.16a4.6,4.6,0,0,1,2.11.07,4.33,4.33,0,0,1,1.86,1l.41.41,3,2.85a2.57,2.57,0,0,0,1.73.91,3.15,3.15,0,0,0,2-.27L93.84,210l.53-.21a4.34,4.34,0,0,1,2.08-.15,6,6,0,0,1,2,.69l.48.32,3.39,2.2a3.15,3.15,0,0,0,1.85.66A3,3,0,0,0,106,213a33.59,33.59,0,0,0,3.55-2l.5-.32a4.74,4.74,0,0,1,4.09-.21l.52.27,3.71,1.83a2.62,2.62,0,0,0,1.92.35,3.2,3.2,0,0,0,1.78-.85l3.21-2.54.45-.36a4.43,4.43,0,0,1,1.94-.77,6.55,6.55,0,0,1,2.09.06l.55.17,3.91,1.08a3.11,3.11,0,0,0,2,.09,3.07,3.07,0,0,0,1.66-1c.49-.48,1-.93,1.43-1.42l1.35-1.57.38-.45a4.31,4.31,0,0,1,1.77-1.14,4.49,4.49,0,0,1,2.08-.27l.57.1c1.34.21,2.73.48,4.09.62a3,3,0,0,0,1.92-.29,3.18,3.18,0,0,0,1.45-1.33l2.31-3.35.31-.48a4.74,4.74,0,0,1,1.62-1.31,4.25,4.25,0,0,1,2-.65h.58l4.08-.11a3.15,3.15,0,0,0,1.91-.49,3.06,3.06,0,0,0,1.29-1.45l1.68-3.77.23-.54a4.42,4.42,0,0,1,1.36-1.59,4.52,4.52,0,0,1,1.92-.86l.59-.07a34.44,34.44,0,0,0,4-.72,3.33,3.33,0,0,0,2.77-2.52l1.23-3.84.16-.55a4.8,4.8,0,0,1,1-1.83,4.42,4.42,0,0,1,1.72-1.19l.55-.17,3.9-1.28a3.23,3.23,0,0,0,1.7-1,3.18,3.18,0,0,0,.69-1.86l.51-4.07.07-.58a4.24,4.24,0,0,1,.85-1.9,4.63,4.63,0,0,1,1.6-1.38l.5-.26,3.55-1.93a3.1,3.1,0,0,0,1.47-1.31,3.13,3.13,0,0,0,.48-1.89,32.45,32.45,0,0,0,0-4.06l0-.58a4.81,4.81,0,0,1,1.78-3.69l.48-.33,3.4-2.37a2.88,2.88,0,0,0,1.18-1.54,3.15,3.15,0,0,0,.12-2l-.69-4-.11-.57a4.42,4.42,0,0,1,.27-2.06,5.37,5.37,0,0,1,1-1.83l.4-.4,2.84-2.91a3.12,3.12,0,0,0,1-1.68,3.06,3.06,0,0,0-.1-1.94c-.31-1.28-.9-2.6-1.35-3.87l-.22-.54a4.58,4.58,0,0,1-.15-2.1,4.52,4.52,0,0,1,.77-1.95l.37-.46A38.55,38.55,0,0,0,213,117.9a3,3,0,0,0,.67-1.82,3.14,3.14,0,0,0-.48-1.91Z"/><path class="cls-2" d="M43.76,148.66l.14-.06a.48.48,0,0,1,.42,0,5.28,5.28,0,0,0,3.29,0l1.09-.4a10.62,10.62,0,0,0,3.45-1.75l.49-.38a18.78,18.78,0,0,0,1.82-1.54c3-3,4.25-5.68,5.81-9.44.71-1.72,1.31-3.58,1.84-5.21.28-.87.55-1.7.84-2.53l.07-.21a.47.47,0,0,1,.49-.3.46.46,0,0,1,.41.39c.15.94.3,1.95.41,2.93.08.78.12,1.57.16,2.34v.08c0,.3,0,.61.05.94l.07,0a.48.48,0,0,1,.59.29v0h0a.46.46,0,0,1-.29.57h0a.28.28,0,0,1-.15,0,2.86,2.86,0,0,1,.17,1.31v.4c0,.29,0,.6,0,.91,0,.57,0,1,0,1.53a6.75,6.75,0,0,0,.75,3.18,2.28,2.28,0,0,0,3.18.91,5.41,5.41,0,0,0,1-.77,22.77,22.77,0,0,0,3.53-4.34c1.93-2.85,3.78-5.69,5.5-8.34a1.91,1.91,0,0,0,.23-.6l.08-.31a.44.44,0,0,1,.14-.22l.3-.23a2.73,2.73,0,0,0,.68-.64c.38-.53.76-1.06,1.16-1.58a.46.46,0,0,1,.82.4l-1.68,6.37q-.77,2.85-1.51,5.7a2.49,2.49,0,0,1-1,1.41l-.36.26a5.62,5.62,0,0,0-.64.48,3.36,3.36,0,0,0-.76.9,1.22,1.22,0,0,0-.07,1.11,1.27,1.27,0,0,0,.9.71,3,3,0,0,0,.77,0h8.53a2.87,2.87,0,0,0,.88-.09,1.61,1.61,0,0,0,1.21-1.12c.12-.52-.13-1-.75-1.46l-.13-.1c-.37-.27-.73-.53-1.1-.78a1.15,1.15,0,0,1-.52-1.19A9.06,9.06,0,0,1,86.4,137l.1-.29a8.1,8.1,0,0,0,.55-2.6,1.24,1.24,0,0,1,.08-.37l.53-2q.63-2.46,1.29-4.91c.59-2.21,1.22-4.56,1.9-6.89a7.87,7.87,0,0,1,1.76-3.18.81.81,0,0,1,.58-.32.53.53,0,0,1,.17,0c.27.12.71-.14.94-.31a1.46,1.46,0,0,0,.81-1.32c-.06-.52-.46-.87-1.18-1a12.67,12.67,0,0,0-2.35-.36c-.74,0-1.48,0-2.22,0h-.11c-.78,0-1.58,0-2.38,0a2.81,2.81,0,0,0-2.68,1.41q-4.12,6-8.27,12L73,131.07c-.32.46-.64.91-1,1.41a.46.46,0,0,1-.22.17.7.7,0,0,1-.63-.13.49.49,0,0,1-.19-.28,4.25,4.25,0,0,1-.12-.62l-.19-1.86c-.07-.75-.15-1.5-.23-2.25-.3-2.93-.62-5.86-.93-8.79-.1-.87-.2-1.8-.35-2.71a2,2,0,0,0-1.64-1.85,19.38,19.38,0,0,0-4.42-.55,11.22,11.22,0,0,1-1.18-.06l-.31,0-1.06-.1h-.09c-.75-.07-1.53-.15-2.31-.16-1.92,0-3.87,0-5.77,0H50a6.85,6.85,0,0,0-.92,0A9,9,0,0,0,43,117.1a8.56,8.56,0,0,0-1.46,6.56,5.64,5.64,0,0,0,2.05,3.45,8.84,8.84,0,0,0,9.08,1.21,4,4,0,0,0,2.62-3,2.6,2.6,0,0,0-.35-2,2.66,2.66,0,0,0-1.76-1.07,3,3,0,0,0-2,.32c-.32.18-.63.39-.95.61s-.53.37-.79.53a9.76,9.76,0,0,1-1.47.75,1.37,1.37,0,0,1-1.4-.25,2.59,2.59,0,0,1-1.12-1.81,4.45,4.45,0,0,1,1.24-3.82,7.3,7.3,0,0,1,3.72-1.84,27.24,27.24,0,0,1,7.35-.37,2.35,2.35,0,0,1,2,1,15.52,15.52,0,0,1,.83,1.55l.13.26a.48.48,0,0,1,0,.29.24.24,0,0,1,0,.08c-.29,1-.58,2-.88,3-.16.53-.31,1.06-.46,1.59-.34,1.21-.69,2.44-1.11,3.62a58,58,0,0,1-3.91,8.82c-.17.33-.32.66-.48,1a10.58,10.58,0,0,1-1.2,2.14,15.22,15.22,0,0,1-3.79,3.32,8.65,8.65,0,0,1-7,1.44c-1.71-.31-3.34-.7-4.48-2.14a6.49,6.49,0,0,1-.77-6.83A3.85,3.85,0,0,1,39,133.72a3.19,3.19,0,0,1,2.58.41c.36.23.71.47,1.06.71l.76.53a4.28,4.28,0,0,0,2.68,1,1.68,1.68,0,0,0,1.79-1.44.5.5,0,0,1,0-.12.48.48,0,0,1,.33-.33.43.43,0,0,0,.25-.21.74.74,0,0,0,.12-.54,15.28,15.28,0,0,0-.65-2.19,1.71,1.71,0,0,0-1.38-1.09,1.41,1.41,0,0,1-.35-.15l-.19-.1-.3-.17a2.08,2.08,0,0,0-.9-.36c-.47,0-.93,0-1.39-.06-.72,0-1.44-.06-2.17-.06a15.64,15.64,0,0,0-2.37.16,8.48,8.48,0,0,0-5,3.27,9.52,9.52,0,0,0-2.06,4.86,8.87,8.87,0,0,0,2.57,7.88,11.52,11.52,0,0,0,6,3.17A5,5,0,0,0,43.76,148.66Z"/><polygon class="cls-2" points="64.02 132.47 64.02 132.47 64.02 132.47 64.02 132.47"/><path class="cls-2" d="M184.39,119.44v0c-.23-1.16-.47-2.36-.77-3.51a3.73,3.73,0,0,0-3.76-3.12c-.92,0-1.85-.07-2.74-.12s-2.06-.13-3.09-.13a20.18,20.18,0,0,0-2.31.13,8.64,8.64,0,0,0-7.73,7.28,7.91,7.91,0,0,0,2.39,7.25c1,.91,2,1.79,3.05,2.65q1.17,1,2.31,2a18.12,18.12,0,0,1,1.87,2,6.73,6.73,0,0,1,1.37,5.59,6.84,6.84,0,0,1-3.61,4.81,12,12,0,0,1-7,1.31l-.27,0a2.44,2.44,0,0,1-2-.86c-.29-.4-.61-.79-.93-1.17l-.66-.81a6.79,6.79,0,0,1,.57-8.69,2.52,2.52,0,0,1,1.58-.86c1,0,1.31,1.22,1.45,1.74s.21.88.3,1.32c.14.63.27,1.23.46,1.81a2.42,2.42,0,0,0,.75,1.19,2.86,2.86,0,0,0,1.61.45,2.8,2.8,0,0,0,2.63-1.54,5,5,0,0,0-2.15-6.67,9.77,9.77,0,0,0-4.06-.86h-.22a9,9,0,0,0-7.33,3.65c-1.12,1.58-2.15,4.31-.74,8.3.71,2,1.7,3.05,3.21,3.42a1.75,1.75,0,0,1,1,.74,3,3,0,0,0,2.1,1.34c1.11.22,2.26.38,3.38.54l1.38.2a17.83,17.83,0,0,0,11.23-4.15,8.74,8.74,0,0,0,3.14-5.7,2.82,2.82,0,0,1,.45-1.15,4.29,4.29,0,0,0,.53-3.63A12.73,12.73,0,0,0,178,128c-1.68-1.4-3.26-3-4.79-4.46a6.66,6.66,0,0,1-2-4.28,3.8,3.8,0,0,1,.92-2.93,3.37,3.37,0,0,1,4-.69,11.09,11.09,0,0,1,2.57,1.65c1.16,1,2.24,2.21,3.28,3.33l.22.23a1.1,1.1,0,0,0,1.3.38,1.14,1.14,0,0,0,.91-1A2.57,2.57,0,0,0,184.39,119.44Zm-20.14,2.63c-.05-.08-.16-.21-.14-.25a4,4,0,0,1,.39-.43l.13.22Zm-3.8,9.15c.12.19.25.37.4.59l-.43.69c-.11-.21-.31-.43-.31-.63S160.33,131.44,160.45,131.22Z"/><path class="cls-2" d="M114.15,115.77a2.59,2.59,0,0,0-1.15,0,4,4,0,0,1-1.31.07,3.56,3.56,0,0,1-.8-.19l-.54-.16h-.65c-.48,0-.94,0-1.41,0a15.35,15.35,0,0,0-5.77,1.38c-2.26,1.07-3.28,2.54-3.21,4.65a1.92,1.92,0,0,0,1.83,2.1,2.53,2.53,0,0,0,.87-.17,7.59,7.59,0,0,0,2-1.35c.65-.55,1.28-1.16,1.89-1.75l.94-.91a3.49,3.49,0,0,1,2.49-.92,6,6,0,0,1,.91.07,2.13,2.13,0,0,1,1.93,2,4.15,4.15,0,0,1-1.54,4,10.93,10.93,0,0,1-3.67,1.75c-.89.28-1.79.55-2.68.81-1.27.38-2.58.77-3.85,1.19a11.37,11.37,0,0,0-6.57,5,11.24,11.24,0,0,0-1.11,2.73,5.31,5.31,0,0,0,0,3,4.05,4.05,0,0,0,1,1.71l.29.37a4.87,4.87,0,0,0,.87,1,3.25,3.25,0,0,0,1.23.41l.86.13a19.79,19.79,0,0,0,3.32.35,9.85,9.85,0,0,0,1.58-.12c.15,0,.74-.29,1.1-.44a8.38,8.38,0,0,1,.89-.37l.13,0a10.13,10.13,0,0,1,2.81-.53,6.27,6.27,0,0,1,1.56.21l1.1.28c1,.27,2.14.55,3.22.77a5.42,5.42,0,0,0,4.28-1,1.6,1.6,0,0,0,.52-2.41,2.72,2.72,0,0,0-.42-.58,4.83,4.83,0,0,1-1.14-5c.51-2,1-4.09,1.57-6.12a6.39,6.39,0,0,0,.16-1.34,7.48,7.48,0,0,1,.2-1.54,4.44,4.44,0,0,1,.46-1,3.07,3.07,0,0,0,.41-1,6.24,6.24,0,0,0,0-1.42C118.54,117.86,117.34,116.44,114.15,115.77Zm-4.52,16.1a10,10,0,0,1-1.79,4.88,6.16,6.16,0,0,1-4.67,2.21,4.75,4.75,0,0,1-1.62-.27,2.64,2.64,0,0,1-2-2.86,5.37,5.37,0,0,1,1.89-4,9.27,9.27,0,0,1,6-2.37H108a1.92,1.92,0,0,1,1.53.43C109.86,130.31,109.78,130.94,109.63,131.87Z"/><path class="cls-2" d="M145.52,137a5.41,5.41,0,0,0,1.42-3,1.6,1.6,0,0,0-.29-1.27,1.4,1.4,0,0,0-1.43-.29,4.6,4.6,0,0,0-1.81.83c-1.13.94-2.2,2-3.24,3l-.2.2a8,8,0,0,1-3.68,2.13,5.32,5.32,0,0,1-1.29.17,3.92,3.92,0,0,1-3.84-2.87,11.31,11.31,0,0,1-.5-2.46,10.81,10.81,0,0,1,1-5.63,2.69,2.69,0,0,1,2.62-1.71h.14c1.48,0,3,0,4.46,0h8.39c1.19,0,1.59-.32,1.93-1.52a7.91,7.91,0,0,0-.06-4.31c-1-3.68-3.1-5.45-6.69-5.56h-.73c-1.35,0-2.68.1-3.81.21a15.47,15.47,0,0,0-9.41,4.4,19.63,19.63,0,0,0-3.47,4.42,17.2,17.2,0,0,0-1.67,4.21.73.73,0,0,0,0,.25,1.75,1.75,0,0,1,0,.56,1.42,1.42,0,0,1-.22.48,1,1,0,0,0-.09.17,19.31,19.31,0,0,0-.22,4.13,11.89,11.89,0,0,0,1.45,5,1.57,1.57,0,0,0,.66.62,4.31,4.31,0,0,1,.72.56,6.8,6.8,0,0,1,.5.57,4.31,4.31,0,0,0,.86.85,9,9,0,0,0,1.94,1,10.57,10.57,0,0,0,3.11.56,13.6,13.6,0,0,0,2-.1,16.87,16.87,0,0,0,3.54-.84c.7-.24,1.42-.52,2.21-.86A15.74,15.74,0,0,0,145.52,137Zm-10.61-16.27a3,3,0,0,1,3-2.8,3.83,3.83,0,0,1,1.31.24,4.35,4.35,0,0,1,1.71,1.28,1.5,1.5,0,0,1,.28,1.52,1.61,1.61,0,0,1-1.33,1c-.73.09-1.46.15-2.24.21l-1.06.09h-.37a1.41,1.41,0,0,1-1.1-.36A1.53,1.53,0,0,1,134.91,120.68Z"/><path class="cls-2" d="M156.12,125.29a1.8,1.8,0,0,0,.52-.43l.2-.26a6.32,6.32,0,0,0,.82-1.24c.81-1.82,1.65-3.81,2.65-6.26a2.86,2.86,0,0,0,.15-1.07,1.25,1.25,0,0,0-.35-.92,2,2,0,0,0-1.42-.48c-1.64,0-2.72.51-3.32,1.55a5.11,5.11,0,0,0-.65,1.48c-.24,1.3-.43,2.63-.61,3.93-.06.38-.11.76-.17,1.14a.44.44,0,0,1,.11.29c0,.18,0,.35,0,.53a7.59,7.59,0,0,0,0,1.07,1,1,0,0,0,1.07,1A1.92,1.92,0,0,0,156.12,125.29Z"/><path class="cls-2" d="M87.37,105a3.51,3.51,0,0,0,3.74,3.45,5.06,5.06,0,0,0,3.83-1.88l.23-.26.15.32a3.44,3.44,0,0,0,3.28,1.82c1.23,0,2.77-.91,4.23-2.48,2-2.22,4-5.9,3.77-9.1a2.42,2.42,0,0,0-2.28-2.52,1.87,1.87,0,0,0-1.37.58,2.12,2.12,0,0,0-.52,1.6,2.63,2.63,0,0,0,.64,1.28A3.52,3.52,0,0,1,104,100c0,2.6-2,4.91-3.53,4.91a3.19,3.19,0,0,1-2.39-.81l-.18-.16.17-.17a9.72,9.72,0,0,0,2.59-7,2.19,2.19,0,0,0-2.05-2.39,2.89,2.89,0,0,0-2.09,1.07c-1.62,1.74-2.53,5.18-2.27,8.54,0,.18,0,.4.06.61l0,.2-.2.06a1.74,1.74,0,0,1-.45.08A2.83,2.83,0,0,1,91,102a8.18,8.18,0,0,1,1.8-6.06c.3-.41.54-.73.52-1a.48.48,0,0,0-.44-.43,4.28,4.28,0,0,0-.5.07,9.12,9.12,0,0,1-1.59.19,3.64,3.64,0,0,1-1.11-.21,5.22,5.22,0,0,0-1.53-.26,3.86,3.86,0,0,0-2.68,1.4A5.34,5.34,0,0,0,84,99.53c.1,1.31.91,2,1.61,2a1.39,1.39,0,0,0,1-.4,1.35,1.35,0,0,0,.31-1c0-.48-.42-.79-.78-1.1s-.59-.48-.62-.78a.89.89,0,0,1,.23-.68A1.72,1.72,0,0,1,87,97.16a2.34,2.34,0,0,1,1.11.38,2.22,2.22,0,0,0,1.67.34l.69-.15-.47.53C88.57,99.9,87.19,102.73,87.37,105Zm9.85-7.34h0a1,1,0,0,1,.75-.35.8.8,0,0,1,.76.82,7.32,7.32,0,0,1-1.5,4.16l-.27.38-.14-.44a5.87,5.87,0,0,1-.25-1.3A4.44,4.44,0,0,1,97.22,97.62Z"/><path class="cls-2" d="M119.19,95.57a4.11,4.11,0,0,0-1.44-.7,7.26,7.26,0,0,0-1.79-.21h-.79a6.73,6.73,0,0,0-1.1.12,3.89,3.89,0,0,0-1,.29.61.61,0,0,0-.36.32l-.11.32-.26-.21a.08.08,0,0,0-.06,0l-.11,0-.24.13a2.1,2.1,0,0,1-.26.13l-.09,0-.05,0a7.18,7.18,0,0,0-1.68,1.48,8.53,8.53,0,0,0-1.19,1.9,10.28,10.28,0,0,0-.7,2.16,10.57,10.57,0,0,0-.24,2.23A4.63,4.63,0,0,0,109,107a4.46,4.46,0,0,0,3.33,1.25,12.78,12.78,0,0,0,2.56-.26,5.08,5.08,0,0,0,2.24-1.16l.53-.48.14-.12a8.38,8.38,0,0,0,.73-.73,4.84,4.84,0,0,0,.58-.81,1.77,1.77,0,0,0,.22-.82c0-.38-.09-.47-.15-.48a2.17,2.17,0,0,0-.59-.06h-.31a1.36,1.36,0,0,0-.29,0c-.27.31-.59.64-.9,1a7.92,7.92,0,0,1-1,.92,5.49,5.49,0,0,1-1.16.65,3.82,3.82,0,0,1-2,.21,1.89,1.89,0,0,1-.61-.18,1.12,1.12,0,0,1-.45-.38l-.09-.11a4.19,4.19,0,0,1-.53-2.09,2.62,2.62,0,0,1,.36-1.76l-.14-.18.26-.12a1,1,0,0,0,.35-.29,1.38,1.38,0,0,1,.64-.45l.43-.09.52-.07.5,0,.41,0,5,0a.6.6,0,0,0,.44-.18,1.27,1.27,0,0,0,.3-.49,2.75,2.75,0,0,0,.16-.61,3.84,3.84,0,0,0,0-.55,4.14,4.14,0,0,0-.35-1.77A3.39,3.39,0,0,0,119.19,95.57Zm-2.94,2.62a1,1,0,0,1-.42.14l-.33,0h-1a3.87,3.87,0,0,1-.48,0,1.25,1.25,0,0,1-.45-.13.53.53,0,0,1-.27-.24l-.08-.12.07-.12a3.55,3.55,0,0,1,.65-.81,1.57,1.57,0,0,1,1.08-.36,1.69,1.69,0,0,1,1,.28,1.09,1.09,0,0,1,.41,1A.49.49,0,0,1,116.25,98.19Z"/><path class="cls-2" d="M122.64,100a8.57,8.57,0,0,0-.64,3.29,5.94,5.94,0,0,0,.33,2,4.41,4.41,0,0,0,1,1.56,4.59,4.59,0,0,0,1.53,1,5.44,5.44,0,0,0,2,.36,7.71,7.71,0,0,0,2-.33,11,11,0,0,0,2.29-1,7.75,7.75,0,0,0,1.86-1.44,2.59,2.59,0,0,0,.76-1.78.54.54,0,0,0-.19-.48,1.68,1.68,0,0,0-.72-.26,1.5,1.5,0,0,0-1.14.36,5.78,5.78,0,0,0-.84,1.07l-.12.19a3.73,3.73,0,0,1-1,.93l-.19.13a2.7,2.7,0,0,1-1.64.49,1.6,1.6,0,0,1-1.19-.45,2.42,2.42,0,0,1-.62-1.11,4.84,4.84,0,0,1-.17-1.4,5.63,5.63,0,0,1,.2-1.4,3.39,3.39,0,0,1,.49-1.1,1,1,0,0,1,.79-.46h6.84c.07,0,.28,0,.47-.37a2.47,2.47,0,0,0,.26-1l0-.21a2.59,2.59,0,0,0,0-.82,3.18,3.18,0,0,0-.44-1.06l-.05-.1a3.26,3.26,0,0,0-.87-1l-.07,0a3.42,3.42,0,0,0-1.53-.8,1.35,1.35,0,0,0-.51.08A1.71,1.71,0,0,1,131,95a.77.77,0,0,1-.43-.18.59.59,0,0,0-.3-.14,7.83,7.83,0,0,0-3.27.69,8.52,8.52,0,0,0-2.64,1.88A8.76,8.76,0,0,0,122.64,100ZM127.89,98a2.59,2.59,0,0,1,.3-1.12,1.22,1.22,0,0,1,1.18-.6,1.69,1.69,0,0,1,.48.07h0a1.54,1.54,0,0,1,.48.24,1.76,1.76,0,0,1,.37.35.75.75,0,0,1,.17.47.78.78,0,0,1-.13.38.52.52,0,0,1-.3.26l-2.56.22Z"/><path class="cls-2" d="M143.06,93.75a4.85,4.85,0,0,1,.37-1.06c.13-.33.27-.67.32-.84a9.49,9.49,0,0,0,.24-1.18,3.07,3.07,0,0,0,0-1c-.08-.27-1.29-2.09-2.11-2.31a.33.33,0,0,0-.35.08c-.11.1-.5.8-1.74,5l-.09.31-.27-.18-.75-.54-.13-.1c-1.82-1.34-4.86-3.57-7.83-3.48-2.53,0-4.71,1.34-5,2.47a.71.71,0,0,0,.4.85c.13.07.25,0,.47,0A10.22,10.22,0,0,1,128,91.5a11,11,0,0,1,2-.17,12.91,12.91,0,0,1,3.83.64,32.93,32.93,0,0,1,5.32,2.34l.16.09-.05.18c-1.33,4.73-2.71,10.1-2.73,10.16a2.48,2.48,0,0,0,0,.29v.36a3.19,3.19,0,0,0,.29,1.45,2.35,2.35,0,0,0,.8.91,3.24,3.24,0,0,0,1.19.48,7.32,7.32,0,0,0,1.52.15c.23,0,.5,0,.81,0a2.92,2.92,0,0,0,.81-.2,1.75,1.75,0,0,0,.61-.42.87.87,0,0,0,.22-.64.41.41,0,0,0-.21-.38,3.91,3.91,0,0,0-.68-.33,5.82,5.82,0,0,1-.75-.33,2.71,2.71,0,0,1-.93-1.27l.17-1c.11-.47.21-.86.3-1.18s.19-.71.3-1.16c0,0,.85-2.87,1.49-5.13l.07-.26.25.12a9.14,9.14,0,0,0,3.65,1h.08a4.35,4.35,0,0,0,2.23-.6,2.24,2.24,0,0,0,1.1-2,1.8,1.8,0,0,0-.83-1.5,1.62,1.62,0,0,0-1.57,0,2,2,0,0,0-.49.41,2.72,2.72,0,0,1-2.09,1,5.56,5.56,0,0,1-1.61-.22l-.23-.06L143,94C143,93.9,143.06,93.79,143.06,93.75Zm-3.95,9.69-.59-.07v-.2a.31.31,0,0,1,.3-.34h.09l.07.07a.37.37,0,0,1,.13.28Z"/><path class="cls-2" d="M138.88,103.18h-.06v.12a.17.17,0,0,0,.17-.14h-.11Z"/><path class="cls-2" d="M78.61,89.57a2.89,2.89,0,0,1,1.4.36,6.91,6.91,0,0,1,1.24.89A11.28,11.28,0,0,1,82.37,92c.34.4.64.78.91,1.11l.26,0h.29c.57,0,.68-.11.7-.15a2.42,2.42,0,0,0,.08-.83v-.37a2,2,0,0,0,0-.34,10.62,10.62,0,0,0-.21-1.07c-.09-.35-.19-.71-.31-1.06a3.42,3.42,0,0,0-.52-1,1.6,1.6,0,0,0-.66-.51,3.24,3.24,0,0,0-.84-.22L81,87.53l-1,0c-.33,0-.67,0-1,0H77.74a6.2,6.2,0,0,0-2.15.38,5.35,5.35,0,0,0-1.79,1.09,5,5,0,0,0-1.2,1.71,4.33,4.33,0,0,0-.3,2,3,3,0,0,0,.47,1.72l.15.27a4,4,0,0,0,1.2,1.44l.26.29c.24.27.56.63.8.85a4,4,0,0,0,.45.32,2.32,2.32,0,0,1,.84.81,5.11,5.11,0,0,0,1.09,1.4,4.42,4.42,0,0,1,1.13,1.5,5.58,5.58,0,0,0,.18,1,4.66,4.66,0,0,1,.21,1.21A3.29,3.29,0,0,1,78.5,105l-.17.29a5,5,0,0,1-1.84,1.88,5.06,5.06,0,0,1-5.61-.34,3.79,3.79,0,0,1-1.27-3.12,4.27,4.27,0,0,1,.21-1.59,1.49,1.49,0,0,1,.55-.68l.21-.15a1.11,1.11,0,0,1,.54-.3.33.33,0,0,0,.21-.12.61.61,0,0,1,.49-.19c.45-.14.77-.1.94.1a.45.45,0,0,1,.08.5,2.55,2.55,0,0,1-.17.32,1.71,1.71,0,0,0-.31.82,3.37,3.37,0,0,0,.22,1,1.63,1.63,0,0,0,.56.73,1.76,1.76,0,0,0,1.08.28,1.8,1.8,0,0,0,1.59-.7,3.11,3.11,0,0,0,.5-1.82,3,3,0,0,0-.7-2.09,3.71,3.71,0,0,0-1.78-1.13,5,5,0,0,0-1.51-.22,7.65,7.65,0,0,0-.81,0,6.23,6.23,0,0,0-2.32.8A4.63,4.63,0,0,0,67.6,101a4.74,4.74,0,0,0-.71,2.61,5.89,5.89,0,0,0,.61,2.77,6,6,0,0,0,1.62,2l.17.12a5.67,5.67,0,0,0,1.94,1.13,9.78,9.78,0,0,0,6-.18,9.61,9.61,0,0,0,3-1.64,8.35,8.35,0,0,0,2.18-2.62A7.49,7.49,0,0,0,81.44,98a43.13,43.13,0,0,0-3.18-3.18A8.52,8.52,0,0,1,77,93.39a3,3,0,0,1-.51-1.72,1.94,1.94,0,0,1,.63-1.53A2.2,2.2,0,0,1,78.61,89.57Z"/><path class="cls-3" d="M42,105.53a13.29,13.29,0,0,0,9.14,3.26,6.26,6.26,0,0,0,1.32-.22c.27-.07.52-.13.72-.16,3.54-.51,6.66-2.46,7.94-5a10,10,0,0,0,.7-7.56,7.66,7.66,0,0,0-4.31-4.66,8.28,8.28,0,0,0-6.78.35A7.16,7.16,0,0,0,46.85,96l0,.11c-.28.88-1,3.23,1,4.7a3,3,0,0,0,2.57.66A3.85,3.85,0,0,0,52.68,99a4.69,4.69,0,0,0,.14-1.85c0-.83-.07-2,.32-2.25a2,2,0,0,1,2.43-.22C56.43,95,57.3,96.22,58,98a5.92,5.92,0,0,1-.12,4.45,6.39,6.39,0,0,1-4.91,2.92,7.7,7.7,0,0,1-7-2.08,13.94,13.94,0,0,1-3.76-7.35,17.1,17.1,0,0,1,.27-8.18A16.71,16.71,0,0,1,44.8,83a17.91,17.91,0,0,1,1.66-1.94,2.26,2.26,0,0,0,.35-.52,1.6,1.6,0,0,1,.23-.36,2,2,0,0,1,.49-.14,1.93,1.93,0,0,0,.78-.3,6.22,6.22,0,0,0,.63-.62,2.47,2.47,0,0,1,.67-.61,12.7,12.7,0,0,1,6.41-2A8.47,8.47,0,0,0,56.49,81a10,10,0,0,0,3.73,4.43,4.7,4.7,0,0,0,3.87.44c2.64-1.34,2.54-5.2,2.52-5.64a6.91,6.91,0,0,0-4.28-5.84A20.33,20.33,0,0,0,60,73.62a9.79,9.79,0,0,1,1.14-2.36c1.44-1.92,4-3.15,7.52-3.57a12.23,12.23,0,0,1,7.72,1.71,16.23,16.23,0,0,1,5.92,5,3.9,3.9,0,0,0,1.24,1.13,21.44,21.44,0,0,0,2.31,3,32.09,32.09,0,0,0,15.6,8.54c.65.14,1.41,0,2,.37s1.51.16,2.21.22c1,.08,1.73.1,2.7.1.71,0,1.48,0,2.18,0a32,32,0,0,0,22.83-11.91,4.78,4.78,0,0,0,.83-1l.16-.22a20.58,20.58,0,0,1,6.57-5.52c1.64-.89,4.64-1.24,7.63-.88a12.77,12.77,0,0,1,7.41,3.57,7.22,7.22,0,0,1,.85,1.78,14.52,14.52,0,0,0-2.19.73,7.17,7.17,0,0,0-4.65,6.17,4.63,4.63,0,0,0,2.65,4.33,4.37,4.37,0,0,0,3.47-.1,7.87,7.87,0,0,0,4.2-3.83,9,9,0,0,0,.88-4.4,9.56,9.56,0,0,1,6,1.9.86.86,0,0,0,.44.1h.06a1,1,0,0,0,.92.6,5.48,5.48,0,0,0,1.29,1.35,10.37,10.37,0,0,1,.93.85,17.09,17.09,0,0,1,3.79,6.87,14.1,14.1,0,0,1-3.19,14.91,8.67,8.67,0,0,1-7.31,2.5,6.62,6.62,0,0,1-4.62-3.6,5.26,5.26,0,0,1-.2-4.23,4.19,4.19,0,0,1,2.34-2.51,3.56,3.56,0,0,1,2.87.14c.4.2.38.74.3,1.61a5.41,5.41,0,0,0,0,1.27,3,3,0,0,0,1.08,2.14,3.7,3.7,0,0,0,2.87.32c1.59-.29,2.43-2.8,2.19-4.28A6.48,6.48,0,0,0,167.14,92a10.94,10.94,0,0,0-6.91,0c-.36.17-.72.32-1.08.48-1.5.62-3,1.27-3.71,3.07-.85,2.26-2.11,6.38-1,8.58,1.51,2.93,5.62,5.45,8.3,5.07a13.87,13.87,0,0,1,1.68,0l.79,0a12.3,12.3,0,0,0,8.59-3.59,16.51,16.51,0,0,0,4.63-8.78,19.35,19.35,0,0,0-.79-9.66,21.42,21.42,0,0,0-4.89-8.31A23.37,23.37,0,0,0,169.46,76l-.22-.16-.41-.3a3.26,3.26,0,0,0-.38-.22l-.23-.13a13.41,13.41,0,0,0-3.33-1.42,14.57,14.57,0,0,0-4.55-.72,14.16,14.16,0,0,0-1.9-3.33A14.36,14.36,0,0,0,148.58,64a15.57,15.57,0,0,0-7.68.88c-.84.2-1.83.21-1.6-.63s.22-.79.39-1.58A32.07,32.07,0,0,0,125.89,29a23.47,23.47,0,0,0-2.32-1.1c-.47-.25-1.09-.86-1.58-1.09A30.34,30.34,0,0,0,108.67,24a33.16,33.16,0,0,0-13.08,2.41,32.22,32.22,0,0,0-9.88,6.74c-.4.39-.94,1.25-1.31,1.66-.67.75-1,1.17-1.75,1.88a13.34,13.34,0,0,0-3.22,5.32,9.37,9.37,0,0,1-.21,1.08c-.15.36-.46.47-.62.82-1.86,4.15-1.86,7.46-2.29,11.9a18,18,0,0,0,.89,7.57c.2.68.19,2.11-1.3,1.9A19.24,19.24,0,0,0,68,64.47a12.73,12.73,0,0,0-9.73,5,11.59,11.59,0,0,0-1.78,3.81h-.27a13.3,13.3,0,0,0-4,.3,14.18,14.18,0,0,0-5.39,2.61,11,11,0,0,0-1,1c-.19.19-.37.38-.54.53a4.32,4.32,0,0,1-.53.38,5.42,5.42,0,0,0-.75.57,16.77,16.77,0,0,0-1.58,1.93,20.1,20.1,0,0,0-2.91,5.93c-1,3.1-2,7.5-1.29,10.85C39,101.52,39.93,103.52,42,105.53ZM157.06,79.4a4.32,4.32,0,0,1-2.14,2l-.4.17a1.12,1.12,0,0,1-.33.12,1.08,1.08,0,0,1-.72-1c0-.94,1.65-2.67,3-3.19l.3-.12a5.94,5.94,0,0,1,.74-.28A4.26,4.26,0,0,1,157.06,79.4ZM82.6,42.75c.29-.57.38-1.3.71-1.84.43-.73,1.11-1.26,1.6-1.94a30.26,30.26,0,0,1,3.47-4.32c2.55-2.42,5-3.2,7.92-5.23a11.19,11.19,0,0,1,2.12-1c.4-.14,1.15-.13,1.55-.25a20.67,20.67,0,0,1,2.5-.59c.84-.17,2.22-.19,3.09-.29a24.54,24.54,0,0,1,3.11-.47A26.42,26.42,0,0,1,116,28.07c1,.27,2.13.37,3,.73,7.39,2.9,13.35,8.43,15.94,16a54.08,54.08,0,0,1,2.53,10.61A13,13,0,0,1,136.38,63a32.24,32.24,0,0,0-1.23,3.71c-.27.66-.19,1.24-.88,1.94a13.5,13.5,0,0,0-1.38,2.47c-.35.56-1,1.1-1.35,1.65s-.52,1-.92,1.49c-4.31,5.2-11.91,10.1-17.35,10.06-1.14,0-1.45.61-2.59.33a8.24,8.24,0,0,0-2.17-.19c-.75,0-1.63.25-2.37.19s-1.35-.12-2-.22a28.88,28.88,0,0,1-15.08-7.11A27.1,27.1,0,0,1,87,75c-.46-.52-1.15-1.06-1.58-1.62-.08-.11-.14-.22-.21-.33l-.34-.6c-.31-.62-.54-1.26-.92-1.9A19.59,19.59,0,0,0,82.74,69l-.23-.33a3.57,3.57,0,0,1-.27-.45c-.35-.73-.66-1.48-.95-2.24A29.89,29.89,0,0,1,79.64,55.6,27.56,27.56,0,0,1,82.6,42.75ZM60.66,77.3c1.24.49,2.75,2.15,2.79,3.06a1.15,1.15,0,0,0,0,.16c0,.2.08.43-.49.72a1.2,1.2,0,0,1-.74,0,4,4,0,0,1-1.77-2A8.41,8.41,0,0,1,59.76,77C60.06,77.08,60.37,77.19,60.66,77.3Z"/><path class="cls-2" d="M82.24,68.22a3.57,3.57,0,0,0,.27.45l.23.33a19.59,19.59,0,0,1,1.19,1.56c.38.64.61,1.28.92,1.9l.34.6c.07.11.13.22.21.33.43.56,1.12,1.1,1.58,1.62a27.1,27.1,0,0,0,2.07,2.33,28.88,28.88,0,0,0,15.08,7.11c.66.1,1.33.17,2,.22s1.62-.19,2.37-.19a8.24,8.24,0,0,1,2.17.19c1.14.28,1.45-.34,2.59-.33,5.44,0,13-4.86,17.35-10.06.4-.48.55-1,.92-1.49s1-1.09,1.35-1.65a13.5,13.5,0,0,1,1.38-2.47c.69-.7.61-1.28.88-1.94A32.24,32.24,0,0,1,136.38,63a13,13,0,0,0,1.16-7.62A54.08,54.08,0,0,0,135,44.79c-2.59-7.56-8.55-13.09-15.94-16-.92-.36-2.09-.46-3-.73a26.42,26.42,0,0,0-7.35-1.29,24.54,24.54,0,0,0-3.11.47c-.87.1-2.25.12-3.09.29a20.67,20.67,0,0,0-2.5.59c-.4.12-1.15.11-1.55.25a11.19,11.19,0,0,0-2.12,1c-2.93,2-5.37,2.81-7.92,5.23A30.26,30.26,0,0,0,84.91,39c-.49.68-1.17,1.21-1.6,1.94-.33.54-.42,1.27-.71,1.84a27.56,27.56,0,0,0-3,12.85A29.89,29.89,0,0,0,81.29,66C81.58,66.74,81.89,67.49,82.24,68.22Z"/><path class="cls-4" d="M121.36,61a11.63,11.63,0,0,0-.54-2.42,15.21,15.21,0,0,0-.11-1.56c-.07-.63-.11-1.26-.16-1.89a24.2,24.2,0,0,0-.47-4.16c-.75-2.73-1.38-4.34-3.26-6.21A11,11,0,0,0,109.2,42a11.93,11.93,0,0,0-6.11,1.68,9.15,9.15,0,0,0-3.53,4.08l-.11.24a14.3,14.3,0,0,0-1,4.66c0,.19-.09.62.12.74a.1.1,0,0,0,.12,0,8.49,8.49,0,0,1,2-1.36,2.46,2.46,0,0,1,1.13-.23l1.44.1c1,.08,1.89.18,2.84.27a.89.89,0,0,1,.74.4,2.87,2.87,0,0,1,.28,1.59V57a3.28,3.28,0,0,0,.88,2c.21.2.55.49.47.83a.42.42,0,0,1-.25.29,2.78,2.78,0,0,1,.52-.05c.79,0,1.44.33,1.44.74s-.65.73-1.44.73-1.45-.33-1.45-.73a.45.45,0,0,1,.11-.28,1.08,1.08,0,0,0-.4.84,1.32,1.32,0,0,0,.52,1.18,1.41,1.41,0,0,0,1.07.25,1.45,1.45,0,0,0,.48-.17c.1,0,.18-.1.28-.13s.43,0,.47.24-.23.55-.4.7a1.86,1.86,0,0,1-1,.38.88.88,0,0,1,0,.17,11.62,11.62,0,0,1-.07,1.61,3.93,3.93,0,0,0,.41.26,4,4,0,0,1,.95-.53,6.78,6.78,0,0,1,2.8.06,5.69,5.69,0,0,1,1.37.52l0,0h0c0-.06,0-.12,0-.17a7.77,7.77,0,0,1-.55-1.17c-.08-.5.46-.35.66-.13s.45.72.72,1.07a3.91,3.91,0,0,1,.77,1.1,1,1,0,0,1,0,.53,2.41,2.41,0,0,1-1,1.42.3.3,0,0,1-.16,0,.44.44,0,0,1-.41-.16.49.49,0,0,1-.06-.44,3.23,3.23,0,0,0,.2-1,6.61,6.61,0,0,1-5.31,2.81,6.4,6.4,0,0,1-4.7-2.08l.09.22c.07.15.17.3.25.46a.86.86,0,0,1,.14.48c0,.32-.5,1.15-.87.76-.16-.16-.15-.46-.25-.67a3.44,3.44,0,0,0-.63-.75,6.09,6.09,0,0,1-.74-1c-.44-.84,0-1.71,1.25-3.1a.39.39,0,0,1,.51-.11,1.13,1.13,0,0,1,.29,1.31l-.12.37a3.8,3.8,0,0,1,.92-.35c.28,0,.56-.1.85-.13,0,0,0,0,0,0a4.65,4.65,0,0,1,1.09-1.57,2.09,2.09,0,0,1-.59-.33l-.13-.08c-.09,0-.14,0-.33.06a1.05,1.05,0,0,1-1,0,1.13,1.13,0,0,1-.73-1.14,1.56,1.56,0,0,1,1.06-1.38c.22-.07.12-1,.09-1.09a3.65,3.65,0,0,0-2.12-.11c-1,.14-3.6.52-4.07,2.57a3.17,3.17,0,0,0,.94,3.41l.17.15a4,4,0,0,1,1.3,1.75c.16.45.27.9.38,1.34s.16.66.26,1A7.81,7.81,0,0,0,105,74a7.51,7.51,0,0,0,4.35.91,6.69,6.69,0,0,0,4.24-2.14,2,2,0,0,1,1-.65,1.31,1.31,0,0,0,.88-.68c.2-.38.35-.53.53-.47a.34.34,0,0,1,.18.28,4.77,4.77,0,0,1-1.67,2.63l-1.39,1a6.51,6.51,0,0,1-4.26,1.68h-.39c-3.32-.26-3.87-1.44-4.06-1s1,1.14,2,1.45c4,1.16,7.45,0,10.31-4.27a28.8,28.8,0,0,0,2.48-5.52A21.4,21.4,0,0,0,121.07,64,7.62,7.62,0,0,0,121.36,61Zm-19.62,3.89a1.25,1.25,0,0,1-2.12-.62,1.77,1.77,0,0,1,0-1.46c.37-.72,1.32-1,2-1.3.43-.18,1.15-.3,1.42.08a1.66,1.66,0,0,1-.14,1.59A7,7,0,0,1,101.74,64.84Zm12.13,5.75c-.72,2.17-3.37,4.17-5.72,3.35-.85-.3-1.94-1.4-1.8-2.38.16-1.15,1.88-.78,2.68-.89a9.83,9.83,0,0,0,2.74-.82c.45-.22,1-.68,1.48-.66C114,69.21,114.05,70,113.87,70.59Zm-7-19.48c-1.48-.15-3.28-.15-4.18-1.3-.5-.47-.19-1.88.27-2.65,1.6-2.61,3.27-3.28,6.6-3.11a8,8,0,0,1,6.88,4.46,16.35,16.35,0,0,1,.92,3.14A12.83,12.83,0,0,1,119,53.12c.14.13.25.29.12.47a.3.3,0,0,1-.26.14l-.14,0c-.31-.16-.58-.38-.89-.55a4.56,4.56,0,0,0-2.42-.63,9.06,9.06,0,0,0-2,.38l-1,.31a1.22,1.22,0,0,1-.86.09.93.93,0,0,1-.48-1,.84.84,0,0,1,.3-.55,1.6,1.6,0,0,1,.74-.26c.77-.11,1.53-.21,2.31-.25C112.06,50.89,108.73,51.3,106.9,51.11Zm6.36,4.7a1.18,1.18,0,0,1,.11-.5,1.51,1.51,0,0,1-1.21,0,.7.7,0,0,1-.36-.55h0c0-.19.14-.8.42-.92a2.77,2.77,0,0,1,.89-.2h.1a6.12,6.12,0,0,1,2.25.06A6.79,6.79,0,0,1,118,55a2.77,2.77,0,0,1,.72,1.23.34.34,0,0,1-.1.33.37.37,0,0,1-.2.07.23.23,0,0,1-.14,0,1.21,1.21,0,0,1-.28-.18,1.19,1.19,0,0,1-.17.6,3.15,3.15,0,0,1-3.67,1.23,2.08,2.08,0,0,1-.36-.14.19.19,0,0,1-.13,0,.6.6,0,0,1-.22-.09,3.16,3.16,0,0,1-1-1.06c-.09-.15-.61-1.18-.23-1.19a.35.35,0,0,1,.25.12,3.59,3.59,0,0,0,.86.52l.22.1A1.27,1.27,0,0,1,113.26,55.81Zm-4.44,2.07c0-.78,0-2,0-3.38,0-1.21,1.57-1,2,.38a1.29,1.29,0,0,1,.17.77v2.06a4.37,4.37,0,0,1,0,.67c0,.76,0,1.41-.52,1.41C109.72,59.79,108.82,58.65,108.82,57.88Zm4.54,5.23a1.14,1.14,0,0,1-1.44.16c-.29-.25-.17-.49,0-.75a.93.93,0,0,0,.05-.1,1.19,1.19,0,0,0,0-.91.7.7,0,0,1-.7.68.59.59,0,0,1-.23,0,.63.63,0,1,1-.38-.13.45.45,0,0,1,.2,0,.72.72,0,0,1-.3-.57.7.7,0,0,1,.71-.7l.12,0c-.12-.08-.21-.18-.16-.34.17-.58,1.06.15,1.28.33a4.5,4.5,0,0,1,.83.86A1.11,1.11,0,0,1,113.36,63.11Zm5.49.21c-.92,1.44-2.27,1.78-3.46.59-1-1-.63-2.66-1.85-3.42-1.5-.92-1.43-1.72-.51-1.41l.69.1c1.64.18,3.36-.31,4.67.65A2.46,2.46,0,0,1,118.85,63.32Z"/><path class="cls-4" d="M111.79,67.33a.83.83,0,0,1,.07.67,6.37,6.37,0,0,0,1.46-1.4,6.15,6.15,0,0,0-1.48,0,9.71,9.71,0,0,0-1.06.2A1.05,1.05,0,0,1,111.79,67.33Z"/><path class="cls-4" d="M104.84,54.55a.32.32,0,0,0,.06-.17c0-.09,0-.11-.07-.12a8.8,8.8,0,0,0-1.43-.56,1.31,1.31,0,0,1,.16.73h0l.34,0A3.07,3.07,0,0,0,104.84,54.55Z"/><path class="cls-4" d="M101.8,53.45a3.11,3.11,0,0,0-1.75.41,2.4,2.4,0,0,0-1,2.31.19.19,0,0,0,0,.08c0-.09.06-.19.1-.28a2.64,2.64,0,0,1,.65-.77,3.9,3.9,0,0,1,1.56-.68A1.16,1.16,0,0,1,101.8,53.45Z"/><path class="cls-4" d="M107,67.54a1.13,1.13,0,0,1,.71-.29h.06a5.75,5.75,0,0,0-2.09-.6,6.24,6.24,0,0,0-1.49,0,6,6,0,0,0,2.69,2.05A.87.87,0,0,1,107,67.54Z"/><path class="cls-4" d="M103.7,58.2a1.64,1.64,0,0,0,.64-1.34.09.09,0,0,0-.07-.09.09.09,0,0,0-.11,0,1.57,1.57,0,0,1-.55.48A1.25,1.25,0,0,1,103.7,58.2Z"/><path class="cls-4" d="M100.71,58a1.65,1.65,0,0,0,.63.29l.07,0,.34.08a1.24,1.24,0,0,1-.13-.69h-.76c-.12,0-.23,0-.27.08S100.65,58,100.71,58Z"/><path class="cls-4" d="M105.6,62.12c.18,0,.16-.13.16-.39s0-.36-.16-.36A.38.38,0,0,0,105.6,62.12Z"/><path class="cls-5" d="M105.75,65.23c-.29,0-.57.08-.85.13a3.8,3.8,0,0,0-.92.35l.12-.37a1.13,1.13,0,0,0-.29-1.31.39.39,0,0,0-.51.11c-1.28,1.39-1.69,2.26-1.25,3.1a6.09,6.09,0,0,0,.74,1,3.44,3.44,0,0,1,.63.75c.1.21.09.51.25.67.37.39.86-.44.87-.76a.86.86,0,0,0-.14-.48c-.08-.16-.18-.31-.25-.46l-.09-.22a6.4,6.4,0,0,0,4.7,2.08A6.61,6.61,0,0,0,114.07,67a3.23,3.23,0,0,1-.2,1,.49.49,0,0,0,.06.44.44.44,0,0,0,.41.16.3.3,0,0,0,.16,0,2.41,2.41,0,0,0,1-1.42,1,1,0,0,0,0-.53,3.91,3.91,0,0,0-.77-1.1c-.27-.35-.42-.73-.72-1.07s-.74-.37-.66.13a7.77,7.77,0,0,0,.55,1.17s0,.11,0,.17h0l0,0a5.69,5.69,0,0,0-1.37-.52,6.78,6.78,0,0,0-2.8-.06,4,4,0,0,0-.95.53,3.93,3.93,0,0,1-.41-.26,1.61,1.61,0,0,0-.54-.27A6.75,6.75,0,0,0,105.75,65.23Zm2.92,2.17h.18l.34,0a1.9,1.9,0,0,0,.56-.12,4.82,4.82,0,0,1,1-.4,9.71,9.71,0,0,1,1.06-.2,6.15,6.15,0,0,1,1.48,0,6.37,6.37,0,0,1-1.46,1.4,5.37,5.37,0,0,1-3.1,1,5.43,5.43,0,0,1-1.88-.34,6,6,0,0,1-2.69-2.05,6.24,6.24,0,0,1,1.49,0,5.75,5.75,0,0,1,2.09.6h0a1.89,1.89,0,0,0,.55.12Z"/><path class="cls-5" d="M112.47,60.79c-.22-.18-1.11-.91-1.28-.33,0,.16,0,.26.16.34v0a1.39,1.39,0,0,1,.5.52c0,.06,0,.12.07.17a1.19,1.19,0,0,1,0,.91.93.93,0,0,1-.05.1c-.13.26-.25.5,0,.75a1.14,1.14,0,0,0,1.44-.16,1.11,1.11,0,0,0-.06-1.46A4.5,4.5,0,0,0,112.47,60.79Z"/><path class="cls-5" d="M114.58,51.2h-.08c-.78,0-1.54.14-2.31.25a1.6,1.6,0,0,0-.74.26.84.84,0,0,0-.3.55.93.93,0,0,0,.48,1,1.22,1.22,0,0,0,.86-.09l1-.31a9.06,9.06,0,0,1,2-.38,4.56,4.56,0,0,1,2.42.63c.31.17.58.39.89.55l.14,0a.3.3,0,0,0,.26-.14c.13-.18,0-.34-.12-.47a12.83,12.83,0,0,0-1.65-1.47,2.71,2.71,0,0,0-.92-.4A7.45,7.45,0,0,0,114.58,51.2Z"/><path class="cls-5" d="M112.43,55.89a.35.35,0,0,0-.25-.12c-.38,0,.14,1,.23,1.19a3.16,3.16,0,0,0,1,1.06.6.6,0,0,0,.22.09.19.19,0,0,0,.13,0,.16.16,0,0,0,.07-.09c0-.07,0-.14,0-.21a.75.75,0,0,1,0-.49l0-.1a2,2,0,0,0,.79.16,7.07,7.07,0,0,0,3.21-1l0,0,.15.09a1.21,1.21,0,0,0,.28.18.23.23,0,0,0,.14,0,.37.37,0,0,0,.2-.07.34.34,0,0,0,.1-.33A2.77,2.77,0,0,0,118,55a6.79,6.79,0,0,0-2.5-1.26,6.12,6.12,0,0,0-2.25-.06h-.1a2.77,2.77,0,0,0-.89.2c-.28.12-.45.73-.42.92h0a.7.7,0,0,0,.36.55,1.51,1.51,0,0,0,1.21,0,1.18,1.18,0,0,0-.11.5,1.27,1.27,0,0,0,.25.7l-.22-.1A3.59,3.59,0,0,1,112.43,55.89Zm4.46-.18a3.15,3.15,0,0,1-1,.56,1.23,1.23,0,0,0,.1-.46,1.29,1.29,0,0,0-.16-.58A5.81,5.81,0,0,1,116.89,55.71Zm-1.83-.27a.38.38,0,0,1,.26-.19c.14,0,.28,0,.27.26s-.22.47-.47.3A.26.26,0,0,1,115.06,55.44Z"/><path class="cls-5" d="M109.76,56v1.62c0,.33.27,1.36.76,1.36.33,0,.44-.2.48-.55a4.37,4.37,0,0,0,0-.67V55.65a1.29,1.29,0,0,0-.17-.77.55.55,0,0,0-.48-.22C109.94,54.66,109.76,55.17,109.76,56Z"/><path class="cls-5" d="M131.18,56.71a5,5,0,0,1-.16-1.36,4.7,4.7,0,0,1,.24-1.07l0-.13a5.86,5.86,0,0,0,0-4.34,7.44,7.44,0,0,0-1.09-1.45,6.66,6.66,0,0,1-1-1.32,6.26,6.26,0,0,1-.49-2.59,6.44,6.44,0,0,0-.63-3c-1.21-2.08-4.19-2.41-5.85-2.42a1.26,1.26,0,0,1-.67-.11c-.16-.12-.18-.35-.2-.72,0-.08,0-.16,0-.23a3.06,3.06,0,0,0-3.26-2.59l-.33,0a2.19,2.19,0,0,1-.72,0,1.86,1.86,0,0,1-.84-.64,2.08,2.08,0,0,0-1.32-.81,2.56,2.56,0,0,0-.93.15c-.4.12-.65.19-.82.06a.83.83,0,0,1-.2-.31l-.06-.12a3.41,3.41,0,0,0-2.54-1.65,8.31,8.31,0,0,0-3,.21l-.13,0a3.93,3.93,0,0,1-1.46.16,3.4,3.4,0,0,1-.78-.22,5.26,5.26,0,0,0-.6-.19,4.58,4.58,0,0,0-3.46.69,12.18,12.18,0,0,0-2.31,2l-.2.21a3.43,3.43,0,0,1-1.3,1,4.09,4.09,0,0,1-1.24.12,4.17,4.17,0,0,0-.5,0,5.84,5.84,0,0,0-3.13,1.08,11.52,11.52,0,0,0-2.82,3.65l-.44.74s0,.11-.08.16a1.78,1.78,0,0,0-.7.1A2,2,0,0,0,87,43.29a6.73,6.73,0,0,0-.14,2.42,4.73,4.73,0,0,1-.45,3c-.17.32-.38.64-.6,1-.87,1.34-1.87,2.85-1,4.51a4.45,4.45,0,0,0,.46.65,3.36,3.36,0,0,1,.47.71,3.28,3.28,0,0,1-.18,2.24,3.9,3.9,0,0,0-.22,2.58A4.2,4.2,0,0,0,86.75,62a5,5,0,0,1,1.09,1.17,4.64,4.64,0,0,1,.4,1.29A3.56,3.56,0,0,0,89,66.33a4.21,4.21,0,0,0,1.95,1L96.14,69l.17,0a14.06,14.06,0,0,0-1.19,6.73,6.32,6.32,0,0,0,3.17,5,5.52,5.52,0,0,0,5.72-.1,10.74,10.74,0,0,1,5.86-1.39h0c1.88,0,4.22,0,5.9,1.06l.33.21a4.51,4.51,0,0,0,1.49.73,4.12,4.12,0,0,0,4.24-1.75,8,8,0,0,0,1.24-8c-.3-.85-.75-2-1.2-3.14l.21,0a3.22,3.22,0,0,0,1.67-.39,5.22,5.22,0,0,0,1.32-1.33l.44-.6a5.46,5.46,0,0,1,1.36-1.5,6.87,6.87,0,0,1,1-.48,6.26,6.26,0,0,0,.8-.35c2.41-1.24,3-4.22,2.53-6.62ZM96.62,67.81a1.29,1.29,0,1,1,1.29-1.29A1.29,1.29,0,0,1,96.62,67.81Zm20.13,5c-2.86,4.3-6.28,5.43-10.31,4.27-1.09-.31-2.2-1.08-2-1.45s.74.71,4.06,1h.39a6.51,6.51,0,0,0,4.26-1.68l1.39-1a4.77,4.77,0,0,0,1.67-2.63.34.34,0,0,0-.18-.28c-.18-.06-.33.09-.53.47a1.31,1.31,0,0,1-.88.68,2,2,0,0,0-1,.65,6.69,6.69,0,0,1-4.24,2.14A7.51,7.51,0,0,1,105,74,7.81,7.81,0,0,1,102,69.81c-.1-.33-.18-.66-.26-1s-.22-.89-.38-1.34a4,4,0,0,0-1.3-1.75l-.17-.15A3.17,3.17,0,0,1,99,62.17c.47-2.05,3.08-2.43,4.07-2.57a3.65,3.65,0,0,1,2.12.11c0,.06.13,1-.09,1.09A1.56,1.56,0,0,0,104,62.18a1.13,1.13,0,0,0,.73,1.14,1.05,1.05,0,0,0,1,0c.19-.09.24-.11.33-.06l.13.08a2.09,2.09,0,0,0,.59.33,3.83,3.83,0,0,0,1.15.16,2.67,2.67,0,0,0,.4,0,1.86,1.86,0,0,0,1-.38c.17-.15.44-.47.4-.7s-.26-.3-.47-.24-.18.09-.28.13a1.45,1.45,0,0,1-.48.17,1.41,1.41,0,0,1-1.07-.25,1.32,1.32,0,0,1-.52-1.18,1.08,1.08,0,0,1,.4-.84,2.37,2.37,0,0,1,.67-.35l.13,0h0a.42.42,0,0,0,.25-.29c.08-.34-.26-.63-.47-.83a3.28,3.28,0,0,1-.88-2V54.17a2.87,2.87,0,0,0-.28-1.59.89.89,0,0,0-.74-.4c-1-.09-1.89-.19-2.84-.27l-1.44-.1a2.46,2.46,0,0,0-1.13.23,8.49,8.49,0,0,0-2,1.36.1.1,0,0,1-.12,0c-.21-.12-.14-.55-.12-.74a14.3,14.3,0,0,1,1-4.66l.11-.24a9.15,9.15,0,0,1,3.53-4.08A11.93,11.93,0,0,1,109.2,42a11,11,0,0,1,7.62,2.71c1.88,1.87,2.51,3.48,3.26,6.21a24.2,24.2,0,0,1,.47,4.16c0,.63.09,1.26.16,1.89a15.21,15.21,0,0,1,.11,1.56,11.63,11.63,0,0,1,.54,2.42,7.62,7.62,0,0,1-.29,3,21.4,21.4,0,0,1-1.84,3.25A28.8,28.8,0,0,1,116.75,72.76Zm-16.16-15c0-.09.15-.08.27-.08h.76a5.16,5.16,0,0,0,.77,0,4.43,4.43,0,0,0,.92-.23l.3-.16a1.57,1.57,0,0,0,.55-.48.09.09,0,0,1,.11,0,.09.09,0,0,1,.07.09,1.64,1.64,0,0,1-.64,1.34,1.45,1.45,0,0,1-.44.24,1.76,1.76,0,0,1-.64.11,3.29,3.29,0,0,1-.87-.14l-.34-.08-.07,0a1.65,1.65,0,0,1-.63-.29C100.65,58,100.55,57.89,100.59,57.79Zm-.76-.72-.13,0a7.26,7.26,0,0,1,1-.75A1.24,1.24,0,0,0,101,57,4.3,4.3,0,0,1,99.83,57.07Zm2.64-1.35a.42.42,0,0,1,.25-.19.23.23,0,0,1,.28.27c0,.23-.23.47-.47.3A.27.27,0,0,1,102.47,55.72Zm1.44.26a3.53,3.53,0,0,1-.6.36,1.27,1.27,0,0,0,.06-.28,1.19,1.19,0,0,0-.1-.46l.83-.08.28,0A1.66,1.66,0,0,1,103.91,56Zm0-1.5-.34,0h0a6.27,6.27,0,0,0-1.29,0h0a7.18,7.18,0,0,0-.85.14,3.9,3.9,0,0,0-1.56.68,2.64,2.64,0,0,0-.65.77c0,.09-.07.19-.1.28a.19.19,0,0,1,0-.08,2.4,2.4,0,0,1,1-2.31,3.11,3.11,0,0,1,1.75-.41,6.45,6.45,0,0,1,1.6.25,8.8,8.8,0,0,1,1.43.56s.07,0,.07.12a.32.32,0,0,1-.06.17A3.07,3.07,0,0,1,103.9,54.48Zm1.7,6.89c.18,0,.16.09.16.36s0,.39-.16.39A.38.38,0,1,1,105.6,61.37Zm16.52,6.44a1.29,1.29,0,1,1,1.29-1.29A1.29,1.29,0,0,1,122.12,67.81Z"/><path class="cls-5" d="M110.62,62a.64.64,0,1,0,.38.13.51.51,0,0,0-.18-.09A.45.45,0,0,0,110.62,62Z"/><path class="cls-2" d="M117.16,180.77l0-.11a1.92,1.92,0,0,0-.39-.63,1.34,1.34,0,0,0-1.14-.45.87.87,0,0,0-.61.58,6.63,6.63,0,0,1-.4.8,5.82,5.82,0,0,1-.63.87s0,.09-.08.14a1,1,0,0,1-.45.47,1.94,1.94,0,0,0-.44.31l-.28.22a7.41,7.41,0,0,1-1.35.74,6.07,6.07,0,0,1-2.26.45,7.07,7.07,0,0,1-2.73-.53,6.16,6.16,0,0,1-1.36-.8l-.26-.18a2.92,2.92,0,0,1-1-1,4.67,4.67,0,0,0-.3-.46,2.53,2.53,0,0,1-.13-.22,7.54,7.54,0,0,1-.34-6.55,1.41,1.41,0,0,1,.13-.24,1,1,0,0,0,.13-.29,1.06,1.06,0,0,1,.26-.48l.1-.11a6.5,6.5,0,0,1,5.46-2.75,6.74,6.74,0,0,1,2.3.35c.09,0,.17.08.26.12a2,2,0,0,0,.28.11,1.34,1.34,0,0,1,.45.23l.12.09a9.44,9.44,0,0,1,1.35,1.06l0,0a3.71,3.71,0,0,1,1,1.17,1.17,1.17,0,0,0,.67.68.51.51,0,0,0,.52-.09c.32-.3.35-1.18.09-2.43s-.5-2.23-1-2.46a.52.52,0,0,1-.11-.08s-.12-.12-.64-.18a3.46,3.46,0,0,1-.76-.17,5.81,5.81,0,0,0-1.15-.23H109.1a11.49,11.49,0,0,0-4.72,1,9.07,9.07,0,0,0-2.09,1.3,7.75,7.75,0,0,0-2.15,2.76,9,9,0,0,0-.2,6.81,7.42,7.42,0,0,0,.85,1.57,12,12,0,0,0,1,1.18,4.37,4.37,0,0,0,1.59,1.14l.49.23a12,12,0,0,0,1.85.77c.28.08.61.14.94.2s.58.1.84.17a4.6,4.6,0,0,0,1.32.11h.3a12.39,12.39,0,0,0,4.83-.88,7.51,7.51,0,0,0,2-1.2,2.11,2.11,0,0,0,.42-.49l.12-.15.15-.19a2.07,2.07,0,0,0,.31-.43,3.53,3.53,0,0,0,.33-1.23A1.08,1.08,0,0,0,117.16,180.77Z"/><path class="cls-2" d="M113.54,177.34a4.38,4.38,0,1,0-4.37,4.73A4.64,4.64,0,0,0,113.54,177.34Zm-2.65-.23a1.77,1.77,0,0,0,0,.23,4.91,4.91,0,0,1-.06.56c0,.22-.07.48-.1.78a3.57,3.57,0,0,1-.17.75l0,.11a1.3,1.3,0,0,1-1.16,1.06.82.82,0,0,1-.22,0l-.14,0a.91.91,0,0,1-.64-.35,4.13,4.13,0,0,1-.32-.57l-.08-.14a3.09,3.09,0,0,1-.48-1.46c0-.05,0-.14,0-.26a5.72,5.72,0,0,1,0-.85c0-.11,0-.22,0-.33a5.15,5.15,0,0,1,0-.56,2.58,2.58,0,0,1,.44-1.15c.07-.11.09-.15.14-.24l0,0a1.16,1.16,0,0,1,1.11-.49,1.21,1.21,0,0,1,.83.39,1.86,1.86,0,0,1,.32.5,2,2,0,0,0,.17.31,1.65,1.65,0,0,1,.34.8A4.49,4.49,0,0,1,110.89,177.11Z"/><path class="cls-2" d="M68.76,150.45h.1a23.14,23.14,0,0,1,3.44.09l.25,0a5.72,5.72,0,0,0,1.39-.61,6,6,0,0,1,1,2.66q0,1.71-.33,1.74a6.8,6.8,0,0,0-4.46-1.52q-2.62.28-3.32,4.07a5.94,5.94,0,0,0,0,.85l.07.61c.2,1.89,1.41,2.92,3.6,3.08l.26,0a6.42,6.42,0,0,0,3.78-2.19c.21-.69.4-1,.57-1.07a.61.61,0,0,1,.57.56l.23,2.06c0,1.48-.06,2.24-.35,2.27a3.54,3.54,0,0,0-1.14-.26q-3.3.53-4.71.9a7.6,7.6,0,0,1-4.51-1.28,7.57,7.57,0,0,1-2.35-4.22l-.07-.68A5.85,5.85,0,0,1,66.51,151,8.24,8.24,0,0,1,68.76,150.45Z"/><path class="cls-2" d="M85.35,149l1-.06q4.61-.3,6.22,5.83l.08,1.27q.28,4.32-5.28,6a8,8,0,0,1-1.08.14l-1.08.07a6.67,6.67,0,0,1-4.78-1.57,7.5,7.5,0,0,1-2-4.6l0-.45q-.12-2,2-4.57A7.51,7.51,0,0,1,85.35,149Zm-2.79,7.17c.14,2.1,1,3.32,2.66,3.66l.83-.06c1.39-.09,2.24-1.47,2.57-4.14a4.13,4.13,0,0,1,0-.83q-.18-2.58-3-3.11h-.08a2.73,2.73,0,0,0-2.55,2A6.34,6.34,0,0,0,82.56,156.19Z"/><path class="cls-2" d="M103.31,148.32h1q4.62-.08,5.92,6.13l0,1.28q.06,4.32-5.58,5.7a6.77,6.77,0,0,1-1.09.09l-1.08,0a6.69,6.69,0,0,1-4.69-1.82A7.4,7.4,0,0,1,96.08,155v-.45q0-2,2.27-4.46A7.47,7.47,0,0,1,103.31,148.32Zm-3.15,7c0,2.1.86,3.36,2.47,3.78h.83c1.4,0,2.32-1.35,2.78-4a5.87,5.87,0,0,1,.07-.83c0-1.73-1-2.81-2.88-3.26h-.08a2.73,2.73,0,0,0-2.64,1.84A6.28,6.28,0,0,0,100.16,155.34Z"/><path class="cls-2" d="M114.8,148.36l1.11,0a15.14,15.14,0,0,1,3.32.53q0,.25-.81,1c0,.16,0,.23-.1.23l.39,3.14h.09q3.69-2.61,3.72-3.21a4.89,4.89,0,0,0-.9-.89V149c.16-.2,1.08-.27,2.75-.2l.51,0c2.27.18,3.4.39,3.4.6a14.34,14.34,0,0,1-2.1,1.24c-2,1.66-2.93,2.61-3,2.84v.08c0,.14,1,2,3.14,5.41,0,.22.53.84,1.63,1.86l.15.55v.08c-.14.25-.57.37-1.3.34l-.94,0c-1,0-2.35-.12-3.93-.23l-.34-.17a5.86,5.86,0,0,0,.75-1.45q0-.4-2.77-3.84a.51.51,0,0,0-.41-.26,2.32,2.32,0,0,0-1.11,2.06,4.94,4.94,0,0,0,.64,3.22c0,.36-1.16.5-3.44.41h-.26c-1.19-.05-1.79-.15-1.78-.3v-.08a12.21,12.21,0,0,0,1.2-2.37c.09-6.12-.08-9.19-.49-9.21-.39-.23-.58-.39-.58-.49v-.23A1.86,1.86,0,0,1,114.8,148.36Z"/><path class="cls-2" d="M137.59,149.63l.34,0c.12,0,.17.09.16.17V150c0,.22-.36.58-1,1.09a3.33,3.33,0,0,0-.13.63q-.76,9.83,0,9.89a1.74,1.74,0,0,1,.37.89.59.59,0,0,1-.63.26l-4.42-.34c-.63-.05-.94-.15-.93-.31l0-.23,1.09-1.73v-.07c.07-1,.14-3.29.18-6.9.1-.58.18-1.25.24-2a8.9,8.9,0,0,0-1.19-1.51l0-.15c0-.11.18-.17.53-.19,1.15.14,1.93.22,2.34.25C136,149.56,137.05,149.58,137.59,149.63Z"/><path class="cls-2" d="M151.62,151l.41.05c.56.06.82.8.78,2.23,0,.6,0,1-.07,1.3v.08c0,.06-.16.18-.45.33-.21,0-.68-.41-1.41-1.16-1.25-.34-2-.53-2.24-.56l-.42,0q-.68-.07-1,2.43a21.86,21.86,0,0,0,2.51.51,3.39,3.39,0,0,1,1.25-.55c.23,0,.29.95.2,2.78,0,.19-.21.37-.57.55l-1.11-.74-.17,0c-1.59,0-2.4.1-2.42.27a.76.76,0,0,0-.12.37l-.2,1.74q-.08.69.93.87l1.43.16a3.51,3.51,0,0,0,2.9-.75l.36-.19a2.64,2.64,0,0,1,.11,1.25l-.06.6q-.37,1.58-1,1.5c-.86-.1-1.84-.23-3-.41q-5.16-.27-5.84-.34c-.77-.16-1.15-.33-1.13-.52l0-.23c0-.18.37-.53,1-1q.36,0,1.17-4.32.32-5.41-.07-5.46c-.76-.41-1.17-.74-1.26-1l0-.15c0-.14.31-.23.88-.29,1.36.26,2.11.4,2.26.41C149,150.91,151.09,151,151.62,151Z"/><path class="cls-3" d="M163.13,154a7.5,7.5,0,0,0-2.46.72,1.36,1.36,0,0,0-.48.51.84.84,0,0,1-.17.22,1,1,0,0,1-.33.15,1.23,1.23,0,0,0-.7.41,4.78,4.78,0,0,0-.53.95l-.14.29a6.1,6.1,0,0,0-.38,3,6.38,6.38,0,0,0,2.46,4.34,4.58,4.58,0,0,0,3.64.6,3.82,3.82,0,0,0,2.09-2.47,2,2,0,0,0-.28-2.07,1.74,1.74,0,0,0-2.68,0,3,3,0,0,1-.39.27c-1.08.63-1.39.64-1.45.63a1.46,1.46,0,0,1-.55-1.46,6.22,6.22,0,0,1,.82-1.77,2,2,0,0,1,.75-.61,3.9,3.9,0,0,1,2.66-.25,5,5,0,0,1,1.11.39,3.6,3.6,0,0,1,1.49,1.35,4.49,4.49,0,0,1,.55,1.39,6.49,6.49,0,0,1-.89,5.07,10.51,10.51,0,0,1-5.19,3c-.78.25-1.54.46-2.24.63a2.59,2.59,0,0,0-.59.23,1.52,1.52,0,0,1-.4.16,1.48,1.48,0,0,1-.26,0,1.44,1.44,0,0,0-.46,0,14.21,14.21,0,0,1-2.57.19,19,19,0,0,1-4.84-.76,14.29,14.29,0,0,0-1.68-.33c-.41-.07-.81-.14-1.15-.22l-.44-.09a30.94,30.94,0,0,0-3.48-.65,52.81,52.81,0,0,0-10.44-1c-3.47.11-7.46.82-10.5,3.94a9.55,9.55,0,0,0-2.81,7.66,8.35,8.35,0,0,0,1.25,3.77,3.19,3.19,0,0,0,.71.71,4.15,4.15,0,0,1,.37.34c.12.12.23.25.33.37a3.65,3.65,0,0,0,.92.86,4.13,4.13,0,0,0,1,.4l.49.17.46.19a6.46,6.46,0,0,0,2.5.64,8.32,8.32,0,0,0,5-1.75c2.28-1.81,4-5,2.27-7.78a5.47,5.47,0,0,0-7.78-2,3.74,3.74,0,0,0-1.44,2.14,2,2,0,0,0,.18,1.58c.49.75,1.4,1.59,3.56.25a3.37,3.37,0,0,1,2.29-.61.85.85,0,0,1,.56.39c.85,1.4-1.23,3.25-1.25,3.27a5.87,5.87,0,0,1-5.12.57l-.45-.17a4.34,4.34,0,0,1-1.14-.53,1,1,0,0,1,0-.12,1,1,0,0,0-.2-.45,4.6,4.6,0,0,1-1-2.57,6.34,6.34,0,0,1,1.43-5.11c1.72-1.76,4.21-2.73,8.43-2.86a47.07,47.07,0,0,1,9.06.87c.21,0,.42,0,.63,0a2.84,2.84,0,0,1,.72.07c.38.09.75.21,1.13.32l.77.23c2.56.72,5.18,1.32,7.8,1.79.35.06.7.15,1.06.23s.91.22,1.37.29a10.74,10.74,0,0,0,2.6-.07l.21,0a14.14,14.14,0,0,0,4.39-1.29l.33-.13a16.71,16.71,0,0,0,5.92-4.82,9.49,9.49,0,0,0,2-7.74A7.53,7.53,0,0,0,163.13,154Z"/><path class="cls-3" d="M93.21,170.84a18,18,0,0,0-3.46-2.62,13.66,13.66,0,0,0-2.38-1.13,17.41,17.41,0,0,0-4.88-.83,27.19,27.19,0,0,0-6.16.22c-.62.11-1.16.24-1.69.37a17,17,0,0,1-2.68.49,4.18,4.18,0,0,0-1.2.35c-.22.08-.43.17-.65.23s-.71.15-1.08.21l-.71.12-1,.21c-1.06.22-2.12.44-3.19.64a28,28,0,0,1-6.59.75c-4.78.33-9.1-.8-10.16-5.6a8.71,8.71,0,0,1-.21-3A5.3,5.3,0,0,1,49.61,158a3.88,3.88,0,0,1,2.5-.43,10.26,10.26,0,0,1,1.67.51,2.48,2.48,0,0,1,1.13,2.21c.12,1.62-.18,2.19-.37,2.38a.64.64,0,0,1-.47.18c-.45,0-.56-.31-.73-1.09S53,160.12,52,160c-1.44-.23-2.35.22-2.68,1.33a3.86,3.86,0,0,0,.17,3,4.1,4.1,0,0,0,2.67,1.84,4,4,0,0,0,4.6-1.67,7,7,0,0,0,.26-6.76,6.86,6.86,0,0,0-6.48-3.37,7.06,7.06,0,0,0-4.51,2,8.43,8.43,0,0,0-1.88,4.1,9.59,9.59,0,0,0,.71,6.61,7.49,7.49,0,0,0,4.56,4.12,5.24,5.24,0,0,1,1.4.73,6.35,6.35,0,0,0,1.57.82c2.31.73,3.41,1.26,6.19,1a33.59,33.59,0,0,0,6.27-1.24c1.31-.3,2.56-.63,3.8-1s2.64-.7,4-1l.86-.21c.37-.1.73-.19,1.17-.28a31.92,31.92,0,0,1,7.56-.82,6.19,6.19,0,0,1,1.17.25,5.81,5.81,0,0,0,1.56.27,4,4,0,0,1,2.33.84l.7.43a5.68,5.68,0,0,1,1.64,1.38l.52.54a5.3,5.3,0,0,0,.79.62,4.29,4.29,0,0,1,.81.68,5.41,5.41,0,0,1,.77,3.73,4,4,0,0,1-1,2.81,8.36,8.36,0,0,1-2.06,1.33,9.8,9.8,0,0,1-2.34.5,5.16,5.16,0,0,1-3.07-1.11c-1-.83-1.81-2.78-1.19-3.8a1,1,0,0,1,.72-.5,2.06,2.06,0,0,1,1.57.63,4.89,4.89,0,0,1,.57.7c.54.76,1.27,1.8,2.67,1.26a2.08,2.08,0,0,0,1.32-1.76A4.57,4.57,0,0,0,88,174.19a4.82,4.82,0,0,0-3.82-.77,5.92,5.92,0,0,0-3.87,2.63,5.66,5.66,0,0,0,1.29,7.54,10.27,10.27,0,0,0,5,2.24h0a11.74,11.74,0,0,0,4.11-.82,9.82,9.82,0,0,0,2.19-1.2,3.59,3.59,0,0,0,.65-.64c.09-.1.17-.2.27-.3a7,7,0,0,0,2-4.42l0-.35a7.19,7.19,0,0,0-.09-2.84A10.38,10.38,0,0,0,93.21,170.84Z"/><polygon class="cls-2" points="64.02 132.47 64.02 132.47 64.02 132.47 64.02 132.47"/></svg>