<svg id="Layer_1" data-name="Layer 1" xmlns="http://www.w3.org/2000/svg" viewBox="0 0 199.2 128.22"><defs><style>.cls-1{fill:#fafbec;}.cls-2{fill:#a16125;}.cls-3{fill:#b16532;}</style></defs><path class="cls-1" d="M16.54,80.27c.11,0,.23-.08.21-.09a7.39,7.39,0,0,0,4.72,0c.49-.19,1-.35,1.39-.51a14.56,14.56,0,0,0,4.64-2.36l.64-.5a28,28,0,0,0,2.41-2c4-4,5.61-7.49,7.66-12.43.93-2.23,1.68-4.56,2.41-6.81.35-1.09.7-2.18,1.08-3.26l.09-.26c.2,1.24.39,2.51.52,3.76.11,1,.16,2.06.21,3.09,0,.5,0,1,.08,1.57a1.42,1.42,0,0,0,.22.84,2.65,2.65,0,0,1,.27,1.61v.52c0,.39,0,.79,0,1.18,0,.68,0,1.36,0,2A9.27,9.27,0,0,0,44.16,71a3.57,3.57,0,0,0,4.93,1.4,7.9,7.9,0,0,0,1.43-1.08,30.45,30.45,0,0,0,4.67-5.74C57.61,62,60,58.38,62.33,54.76a3.19,3.19,0,0,0,.37-1c0-.14.09-.35.1-.37s.24-.19.36-.29a3.92,3.92,0,0,0,1-1c.49-.68,1-1.36,1.48-2-.72,2.76-1.45,5.51-2.18,8.27l-1.95,7.38a2.67,2.67,0,0,1-1,1.5c-.14.11-.3.21-.45.32a8.16,8.16,0,0,0-.88.67A5,5,0,0,0,58,69.6a2.24,2.24,0,0,0-.12,2,2.28,2.28,0,0,0,1.6,1.26,4.59,4.59,0,0,0,1.16.08h6.94c1.36,0,2.71,0,4.1,0A4.75,4.75,0,0,0,73,72.77a2.66,2.66,0,0,0,2-1.9,2.39,2.39,0,0,0-1.2-2.51l-.18-.13c-.48-.35-1-.69-1.43-1a.88.88,0,0,1-.42-1,7.88,7.88,0,0,1,.34-1.38l.12-.38A10.92,10.92,0,0,0,73,60.92a2,2,0,0,1,.07-.3l0-.19L73.75,58c.55-2.12,1.1-4.24,1.67-6.36.79-3,1.6-6,2.46-8.91A9.59,9.59,0,0,1,80,38.79c.08-.09.18-.22.27-.21a1.89,1.89,0,0,0,1.82-.47,2.49,2.49,0,0,0,1.3-2.27c-.08-.66-.49-1.51-2-1.86a16.68,16.68,0,0,0-3.17-.48c-1,0-1.93,0-2.89,0s-2.14,0-3.2,0a4.26,4.26,0,0,0-4,2.09Q62.82,43.34,57.44,51.1l-3.81,5.49c-.41.59-.83,1.19-1.26,1.83,0,0,0,0-.26-.11a6.1,6.1,0,0,1-.14-.72l-.24-2.41c-.1-1-.19-2-.3-2.93q-.6-5.7-1.21-11.39c-.13-1.18-.27-2.37-.46-3.55a3.14,3.14,0,0,0-2.6-2.88,24.63,24.63,0,0,0-5.87-.74,14.33,14.33,0,0,1-1.47-.07l-.39,0L38,33.45c-1-.1-2-.2-3-.21-2.6,0-5.19,0-7.79,0h-2.8a8,8,0,0,0-1.29.07,12.3,12.3,0,0,0-8.25,5.18,11.78,11.78,0,0,0-2,9,7.88,7.88,0,0,0,2.88,4.83A12,12,0,0,0,28,53.93a5.71,5.71,0,0,0,3.77-4.34,3.94,3.94,0,0,0-.54-3,4,4,0,0,0-2.67-1.65,4.51,4.51,0,0,0-3.05.49c-.45.25-.88.55-1.31.84s-.63.44-1,.64a13.14,13.14,0,0,1-1.82.93,1.21,1.21,0,0,1-1.23-.24A2.78,2.78,0,0,1,19,45.65a5.2,5.2,0,0,1,1.43-4.45A8.85,8.85,0,0,1,25,39a34.64,34.64,0,0,1,9.36-.48,2.49,2.49,0,0,1,2.13,1.07,20,20,0,0,1,1.05,2l.16.34h0c-.38,1.31-.76,2.62-1.15,3.92-.2.69-.4,1.38-.59,2.07-.44,1.54-.89,3.14-1.43,4.65a75.22,75.22,0,0,1-5,11.36c-.23.45-.44.9-.65,1.35a13.18,13.18,0,0,1-1.47,2.61A19,19,0,0,1,22.58,72a10.64,10.64,0,0,1-8.66,1.78c-2.1-.38-4.1-.86-5.43-2.56a7.76,7.76,0,0,1-1-8.18A4.29,4.29,0,0,1,10.22,61a3.56,3.56,0,0,1,2.86.45c.48.3.95.63,1.42,1l.94.64a6.15,6.15,0,0,0,3.84,1.35A2.77,2.77,0,0,0,22.16,62c0-.05,0-.12,0-.14a1.16,1.16,0,0,0,.68-.53,1.56,1.56,0,0,0,.24-1.17,21.26,21.26,0,0,0-.87-2.93A2.85,2.85,0,0,0,20,55.48a1.53,1.53,0,0,1-.25-.13l-.28-.14A3.84,3.84,0,0,1,19,55a3,3,0,0,0-1.42-.53c-.59,0-1.19,0-1.79-.07a29.4,29.4,0,0,0-6,.14C7.39,54.92,5.07,56.42,3,59a13,13,0,0,0-2.8,6.59,12.05,12.05,0,0,0,3.5,10.74,15.56,15.56,0,0,0,8.09,4.27,11.47,11.47,0,0,0,2.28.29A5.24,5.24,0,0,0,16.54,80.27Zm26.94-19.7Z"/><path class="cls-1" d="M199.16,41.74c-.31-1.55-.62-3.1-1-4.62-.74-2.85-2.62-4.46-5.45-4.5-2.52,0-5-.32-7.56-.32a24.46,24.46,0,0,0-3.08.17c-4.87.61-9.75,4-10.55,10a10.82,10.82,0,0,0,3.3,9.91c2.25,2.09,4.66,4,6.95,6a23.82,23.82,0,0,1,2.37,2.54,8.33,8.33,0,0,1-2.74,12.56,14.62,14.62,0,0,1-6.94,1.72,16.51,16.51,0,0,1-1.72-.09c-.81-.09-1.84,0-2.48-.89s-1.39-1.72-2.07-2.59c-2.34-3-2-8,.66-10.45a2.87,2.87,0,0,1,1.64-.95c.58,0,1,.59,1.29,1.81s.57,2.76,1,4.09A3.78,3.78,0,0,0,174,68a4.31,4.31,0,0,0,2.44.7,4.23,4.23,0,0,0,4-2.34,7.1,7.1,0,0,0-3.07-9.45,13.32,13.32,0,0,0-5.51-1.18h-.3c-7.15,0-14.59,6.25-11,16.29.81,2.27,2.06,4.21,4.6,4.83a1.6,1.6,0,0,1,.92.7,4.49,4.49,0,0,0,3.12,2c2.07.4,4.17.66,6.26,1,5.6-.26,10.67-1.81,15-5.52a11.91,11.91,0,0,0,4.28-7.78,3,3,0,0,1,.49-1.24,6.15,6.15,0,0,0,.75-5.22,17.08,17.08,0,0,0-5.15-8.15c-2.18-1.82-4.2-3.82-6.23-5.82A8,8,0,0,1,182,41.62a3.9,3.9,0,0,1,3.72-4.51,4.09,4.09,0,0,1,1.78.42,14.26,14.26,0,0,1,3.2,2c1.58,1.43,3,3,4.5,4.59a2.1,2.1,0,0,0,1.57.78,2.22,2.22,0,0,0,.74-.13,2.12,2.12,0,0,0,1.6-1.87A4.4,4.4,0,0,0,199.16,41.74ZM172.27,45a6.91,6.91,0,0,1,.51-.57l.17.29-.5.6C172.39,45.16,172.24,45,172.27,45Zm-4.75,12.18.52.76-.55.9c-.14-.28-.41-.55-.4-.82S167.37,57.41,167.52,57.13Z"/><path class="cls-1" d="M107.63,36.51a4.59,4.59,0,0,0-.93-.11c-.66,0-1,.21-1.8.21l-.59,0h0c-.15,0-1.54-.46-1.69-.46h0l-1.71,0-1,0A20.48,20.48,0,0,0,92.16,38c-2.73,1.3-4.6,3.29-4.5,6.59.06,2,1.3,3.32,3,3.32A3.87,3.87,0,0,0,92,47.64a9.89,9.89,0,0,0,2.84-1.86c1.29-1.09,2.47-2.31,3.7-3.47a3.93,3.93,0,0,1,2.81-1,8.26,8.26,0,0,1,1.1.08,2.17,2.17,0,0,1,2,2,4.72,4.72,0,0,1-1.78,4.66,13.54,13.54,0,0,1-4.55,2.17c-2.82.88-5.68,1.66-8.48,2.59A14.63,14.63,0,0,0,79.24,63.31a7.53,7.53,0,0,0,0,4.24A5.84,5.84,0,0,0,80.72,70a10.34,10.34,0,0,0,1.66,1.85,4.94,4.94,0,0,0,1.82.6,36.44,36.44,0,0,0,5.51.63,13,13,0,0,0,2.14-.17c.46-.07,2.19-.93,2.65-1.06a13.12,13.12,0,0,1,3.64-.71,7.61,7.61,0,0,1,1.87.24c1.87.47,3.74,1,5.63,1.37a7.09,7.09,0,0,0,1.5.16,8,8,0,0,0,4.52-1.5,2.66,2.66,0,0,0,.85-3.93,4,4,0,0,0-.64-.88c-1.7-1.68-1.86-3.72-1.32-5.88.67-2.65,1.34-5.29,2-7.93.32-1.21.13-2.53.46-3.73.26-.94,1-1.77,1.15-2.71a8.34,8.34,0,0,0,0-2C113.79,39.66,112.14,37.45,107.63,36.51ZM101,57.87a12.54,12.54,0,0,1-2.19,6.05,7.37,7.37,0,0,1-5.58,2.64,5.7,5.7,0,0,1-1.9-.32,2.82,2.82,0,0,1-2.16-3.13,6.41,6.41,0,0,1,2.26-4.76,11.36,11.36,0,0,1,7.41-2.91h.61C101.28,55.43,101.4,55.77,101,57.87Z"/><path class="cls-1" d="M150.61,60.77c.21-1.68-.68-2.79-2.15-2.79a3.46,3.46,0,0,0-.82.1,6.61,6.61,0,0,0-2.59,1.2c-1.58,1.31-3,2.76-4.5,4.2a9.86,9.86,0,0,1-4.49,2.6,6.43,6.43,0,0,1-1.53.2A4.43,4.43,0,0,1,130.14,63a13.88,13.88,0,0,1-.63-3.06,13.34,13.34,0,0,1,1.29-7,2.91,2.91,0,0,1,2.85-1.86h.16c1.11,0,2.23.05,3.34.05,1.61,0,3.21,0,4.82,0h8.52c1.84,0,2.58-.63,3.09-2.42a10.94,10.94,0,0,0-.08-5.9c-1.17-4.45-3.79-7.49-9.24-7.66l-1,0c-1.66,0-3.33.13-5,.28a20.64,20.64,0,0,0-12.56,5.88,25.16,25.16,0,0,0-4.61,5.87,22.83,22.83,0,0,0-2.23,5.6c-.08.35.09.73,0,1.08s-.37.56-.42.86a26.66,26.66,0,0,0-.29,5.48,16.32,16.32,0,0,0,2,6.81c.53.91,1.16.92,1.89,1.66a13.52,13.52,0,0,0,1.86,1.92,12.52,12.52,0,0,0,2.65,1.29,14.17,14.17,0,0,0,4.21.76h.52a17.48,17.48,0,0,0,2.18-.13,22.43,22.43,0,0,0,4.71-1.12c1-.33,1.95-.72,2.91-1.14A20.86,20.86,0,0,0,148.62,65,7.6,7.6,0,0,0,150.61,60.77ZM135,43.52a3.24,3.24,0,0,1,3.28-3.08,4.3,4.3,0,0,1,1.49.28,5,5,0,0,1,2,1.48,1.36,1.36,0,0,1-1,2.25c-1.37.18-2.75.26-4.25.4h-.41C135.06,44.81,134.91,44.62,135,43.52Z"/><path class="cls-1" d="M162.23,50a2.91,2.91,0,0,0,.84-.71,11.54,11.54,0,0,0,1.39-2.07c1.2-2.69,2.34-5.41,3.45-8.13a4.34,4.34,0,0,0,.23-1.6c0-1.48-1.1-2.43-2.9-2.43h0c-2.13,0-3.87.65-4.83,2.31a6.75,6.75,0,0,0-.91,2.11c-.42,2.34-.73,4.7-1.08,7.05h.2c0,.71-.06,1.43,0,2.13a1.91,1.91,0,0,0,2,1.8A3.21,3.21,0,0,0,162.23,50Z"/><path class="cls-1" d="M109.18,119.47a1.34,1.34,0,0,0-1,.91,7.77,7.77,0,0,1-.5,1,7.55,7.55,0,0,1-.79,1.09c-.18.22-.19.52-.61.72a8.31,8.31,0,0,0-1,.71,8,8,0,0,1-1.7.93,7.49,7.49,0,0,1-2.83.57,8.71,8.71,0,0,1-3.43-.67,7.67,7.67,0,0,1-1.71-1,4.24,4.24,0,0,1-1.52-1.49c-.29-.51-.43-.65-.56-.88a9.58,9.58,0,0,1-.42-8.26,4.49,4.49,0,0,0,.36-.73c.08-.37.27-.46.42-.68a8.14,8.14,0,0,1,6.86-3.45,8.55,8.55,0,0,1,2.9.44c.25.09.47.24.71.31a2,2,0,0,1,.68.38,12.27,12.27,0,0,1,1.7,1.34,5.06,5.06,0,0,1,1.28,1.47,1.74,1.74,0,0,0,1,1A.91.91,0,0,0,110,113c.61-.58.44-2.16.19-3.38-.34-1.64-.69-3-1.46-3.37-.11,0-.08-.24-1-.34-.73-.08-1.38-.44-2.49-.52h-4.39a15.06,15.06,0,0,0-6.21,1.29,12,12,0,0,0-2.76,1.72A10.43,10.43,0,0,0,89,112.1a11.13,11.13,0,0,0-1,4.8,11.32,11.32,0,0,0,.76,4.21,10,10,0,0,0,1.13,2.09,14.59,14.59,0,0,0,1.29,1.55,5.79,5.79,0,0,0,2.13,1.53,22,22,0,0,0,3.07,1.31c.71.2,1.6.29,2.31.47a7.56,7.56,0,0,0,2.16.16,16.17,16.17,0,0,0,6.36-1.16,9.75,9.75,0,0,0,2.61-1.6,4.5,4.5,0,0,0,.73-.86,6.81,6.81,0,0,0,.63-.84,4.94,4.94,0,0,0,.45-1.68,1.71,1.71,0,0,0-.11-.92,3.63,3.63,0,0,0-.62-1A2.07,2.07,0,0,0,109.18,119.47Z"/><path class="cls-1" d="M100.93,110.45c-3.53,0-5.9,3.29-5.9,6.37s2.37,6.37,5.9,6.37,5.9-3.29,5.9-6.37S104.46,110.45,100.93,110.45Zm-2,7.27c0-.23-.08-.88,0-1.43a10.39,10.39,0,0,1,0-1.13,3,3,0,0,1,.52-1.38,2.73,2.73,0,0,0,.23-.4c.23-.44.83-.51,1.21-.51a1.34,1.34,0,0,1,.9.44c.26.26.42.78.63,1a2.09,2.09,0,0,1,.38.91,7.65,7.65,0,0,1,.06,1.57c0,.36-.15,1-.21,1.71a4.29,4.29,0,0,1-.26,1.07c-.24.79-.81,1.33-1.5,1.17-.39-.09-.58-.07-.86-.41a8.36,8.36,0,0,1-.5-.88A3.78,3.78,0,0,1,99,117.72Z"/><path class="cls-2" d="M171.42,86.58a9.41,9.41,0,0,0-3.17.92,1.78,1.78,0,0,0-.63.66,1.28,1.28,0,0,1-.21.29,1.18,1.18,0,0,1-.44.19,1.65,1.65,0,0,0-.9.53,6.35,6.35,0,0,0-.69,1.24c-.07.14-.12.27-.18.38a7.75,7.75,0,0,0-.49,3.85,8.2,8.2,0,0,0,3.18,5.61,6,6,0,0,0,4.72.79c1.1-.25,2.28-1.85,2.71-3.2a2.66,2.66,0,0,0-.37-2.68c-1.45-1.57-2.77-.55-3.48,0a3.9,3.9,0,0,1-.5.36c-1.4.82-1.79.83-1.87.81a1.89,1.89,0,0,1-.72-1.89,7.79,7.79,0,0,1,1.07-2.28,2.56,2.56,0,0,1,1-.8,5.08,5.08,0,0,1,3.44-.32,6.62,6.62,0,0,1,1.44.5,4.75,4.75,0,0,1,1.93,1.76,5.93,5.93,0,0,1,.71,1.79c.42,2,.25,4.85-1.15,6.57-1.76,2.18-4.52,3.26-6.72,3.95-1,.32-2,.59-2.9.81a3.33,3.33,0,0,0-.76.3,1.75,1.75,0,0,1-.52.2,1.55,1.55,0,0,1-.34,0,2.47,2.47,0,0,0-.6,0,19.32,19.32,0,0,1-3.33.25,24.63,24.63,0,0,1-6.26-1c-.63-.17-1.42-.3-2.17-.43-.53-.09-1.05-.17-1.49-.27l-.57-.13a42.18,42.18,0,0,0-4.51-.84c-1.57-.19-7.43-1.55-13.52-1.35-4.49.15-9.66,1.07-13.59,5.1a12.34,12.34,0,0,0-3.64,9.92,10.9,10.9,0,0,0,1.61,4.9,4.18,4.18,0,0,0,.92.91c.18.15.35.29.49.43l.42.49A4.75,4.75,0,0,0,120.5,126a5.15,5.15,0,0,0,1.27.52l.64.22.6.24a8.31,8.31,0,0,0,3.22.84,10.76,10.76,0,0,0,6.48-2.28c2.95-2.34,5.13-6.49,2.95-10.07-2.27-3.73-6.23-4.75-10.08-2.62a4.87,4.87,0,0,0-1.87,2.78,2.58,2.58,0,0,0,.24,2c.63,1,1.8,2.06,4.6.33a4.47,4.47,0,0,1,3-.8,1.11,1.11,0,0,1,.72.52c1.11,1.8-1.59,4.2-1.62,4.22a7.51,7.51,0,0,1-6.62.74l-.58-.21a5.11,5.11,0,0,1-1.48-.69s0-.11,0-.16a1.29,1.29,0,0,0-.25-.58,6,6,0,0,1-1.24-3.32c-.2-2,0-4.7,1.84-6.62,2.24-2.29,5.46-3.54,10.92-3.71a60.92,60.92,0,0,1,11.74,1.13,7.36,7.36,0,0,0,.81.06,4.17,4.17,0,0,1,.94.1c.48.12,1,.27,1.45.41s.67.21,1,.3c3.3.93,6.7,1.7,10.09,2.31.46.08.91.2,1.37.31s1.19.28,1.78.37a13.55,13.55,0,0,0,3.37-.09l.27,0a18.06,18.06,0,0,0,5.68-1.66l.43-.18a21.46,21.46,0,0,0,7.67-6.24,12.25,12.25,0,0,0,2.61-10A9.73,9.73,0,0,0,171.42,86.58Z"/><path class="cls-2" d="M80.89,108.41a22.89,22.89,0,0,0-4.48-3.4,18.09,18.09,0,0,0-3.08-1.46A22.22,22.22,0,0,0,67,102.48a34.65,34.65,0,0,0-8,.28c-.81.14-1.5.31-2.19.48a22.13,22.13,0,0,1-3.47.63,5.44,5.44,0,0,0-1.56.45,6.47,6.47,0,0,1-.84.3c-.45.12-.92.2-1.4.28-.3,0-.61.09-.91.15l-1.35.28c-1.38.28-2.75.56-4.13.82a36.11,36.11,0,0,1-8.54,1c-6.18.43-11.78-1-13.15-7.25A11.53,11.53,0,0,1,21.22,96a7,7,0,0,1,3.21-4.29,5,5,0,0,1,3.24-.55,12.58,12.58,0,0,1,2.17.66,3.22,3.22,0,0,1,1.46,2.86c.15,2.09-.23,2.83-.47,3.08a.84.84,0,0,1-.62.23c-.59,0-.72-.4-.94-1.41s-.44-2-1.72-2.26c-1.87-.3-3,.28-3.47,1.72a5,5,0,0,0,.21,3.94,5.35,5.35,0,0,0,3.46,2.38,5.15,5.15,0,0,0,6-2.17,9,9,0,0,0,.34-8.74,8.9,8.9,0,0,0-8.4-4.38,9.2,9.2,0,0,0-5.84,2.65A10.91,10.91,0,0,0,17.38,95a12.37,12.37,0,0,0,.92,8.55c.82,1.65,2.67,4.54,5.91,5.35a6.59,6.59,0,0,1,1.8.93,8.65,8.65,0,0,0,2,1.07c3,.94,4.41,1.63,8,1.35,3.44-.27,4.64-.81,8.13-1.61,1.69-.39,3.3-.82,4.91-1.24s3.43-.91,5.23-1.32c.4-.09.75-.18,1.11-.28s.94-.25,1.51-.36a41.72,41.72,0,0,1,9.78-1.06,7.83,7.83,0,0,1,1.52.32,7.57,7.57,0,0,0,2,.36,5.08,5.08,0,0,1,3,1.08c.3.19.6.38.91.55a7.91,7.91,0,0,1,2.12,1.79l.67.71a8,8,0,0,0,1,.8,4.74,4.74,0,0,1,1,.88,7,7,0,0,1,1,4.82c-.14,1.42-.35,2.76-1.34,3.64a10.52,10.52,0,0,1-2.67,1.72,11.65,11.65,0,0,1-3,.65,6.61,6.61,0,0,1-4-1.43c-1.35-1.08-2.35-3.6-1.54-4.92a1.23,1.23,0,0,1,.93-.65,2.67,2.67,0,0,1,2,.82,5.18,5.18,0,0,1,.74.91c.7,1,1.65,2.32,3.46,1.62a2.69,2.69,0,0,0,1.71-2.27,5.93,5.93,0,0,0-2.24-5.07,6.2,6.2,0,0,0-5-1,7.64,7.64,0,0,0-5,3.4,7.31,7.31,0,0,0,1.67,9.76c1.34,1.17,4.54,2.87,6.49,2.9h0a15.27,15.27,0,0,0,5.32-1.06,12.53,12.53,0,0,0,2.84-1.56,4.68,4.68,0,0,0,.84-.82c.11-.13.22-.26.35-.39a9,9,0,0,0,2.53-5.72l0-.46a9.31,9.31,0,0,0-.11-3.67A13.33,13.33,0,0,0,80.89,108.41Z"/><path class="cls-1" d="M77.64,27.86a6.84,6.84,0,0,0,5.18-2.53,4.76,4.76,0,0,0,4.53,2.53c1.67,0,3.75-1.21,5.7-3.32,2.71-2.92,5.29-7.77,5-12C97.85,10.4,96.54,9,94.77,9a2.7,2.7,0,0,0-2,.86,3,3,0,0,0-.75,2.3,3.66,3.66,0,0,0,.88,1.81A4.22,4.22,0,0,1,94,16.6c0,3.12-2.4,6.07-4.26,6.07a3.89,3.89,0,0,1-2.9-1,12.93,12.93,0,0,0,3.44-9.32A3.14,3.14,0,0,0,87.3,9a4.07,4.07,0,0,0-2.93,1.49c-2.15,2.32-3.36,6.86-3,11.3,0,.24,0,.54.09.82a1.82,1.82,0,0,1-.5.09c-1.67,0-2.94-1.44-3.11-3.5a10.32,10.32,0,0,1,2.28-7.65c.44-.6.76-1,.73-1.44A.93.93,0,0,0,80,9.24a5.46,5.46,0,0,0-.71.11,11.54,11.54,0,0,1-2,.24,4.61,4.61,0,0,1-1.36-.26,6.51,6.51,0,0,0-2-.36,5.31,5.31,0,0,0-3.7,1.91,7.18,7.18,0,0,0-2,5.19C68.25,18,69.44,19,70.49,19A2.07,2.07,0,0,0,72,18.35a2,2,0,0,0,.49-1.54,2.47,2.47,0,0,0-1.14-1.63c-.34-.28-.66-.54-.68-.8a.84.84,0,0,1,.22-.65,1.93,1.93,0,0,1,1.42-.45,2.73,2.73,0,0,1,1.29.46,3.44,3.44,0,0,0,1.65.54A3.63,3.63,0,0,0,76,14.2c-2,2.24-3.75,6-3.52,8.91A4.85,4.85,0,0,0,77.64,27.86Zm8.14-14.09a1,1,0,0,1,.74-.36c.32,0,.65.24.69.78a9.21,9.21,0,0,1-1.89,5.2,6.85,6.85,0,0,1-.3-1.62C84.87,15.91,85.15,14.45,85.78,13.77Z"/><path class="cls-1" d="M116.07,14.77a5.45,5.45,0,0,0-.5-2.43,4.62,4.62,0,0,0-1.35-1.67,5.39,5.39,0,0,0-2-.95,9.6,9.6,0,0,0-2.39-.29c-.21,0-.55,0-1,0a9.28,9.28,0,0,0-1.48.15A5.86,5.86,0,0,0,106,10a1.1,1.1,0,0,0-.62.6.4.4,0,0,0-.26-.11.72.72,0,0,0-.28.1l-.33.18-.32.16a.84.84,0,0,0-.21.13,9.67,9.67,0,0,0-2.25,2,10.83,10.83,0,0,0-1.59,2.54,13.47,13.47,0,0,0-.93,2.86,14.78,14.78,0,0,0-.31,2.95,6.18,6.18,0,0,0,1.68,4.53,6.08,6.08,0,0,0,4.54,1.72,16.33,16.33,0,0,0,3.37-.35,6.59,6.59,0,0,0,3-1.57l.69-.61.18-.17a9.76,9.76,0,0,0,1-1,5.93,5.93,0,0,0,.79-1.11,2.45,2.45,0,0,0,.33-1.21c0-.2,0-.8-.41-.92a3.67,3.67,0,0,0-.86-.08h-.4a2.12,2.12,0,0,0-.44,0,.21.21,0,0,0-.1.06c-.41.43-.82.87-1.22,1.31a9.19,9.19,0,0,1-1.27,1.16,6.35,6.35,0,0,1-1.44.81,4.69,4.69,0,0,1-2.45.25,2.27,2.27,0,0,1-.7-.2,1.21,1.21,0,0,1-.46-.4l-.05-.09-.07-.05A5.37,5.37,0,0,1,104,21a3.14,3.14,0,0,1,.45-2.14.2.2,0,0,0,0-.24,1.64,1.64,0,0,0,.57-.47,1.45,1.45,0,0,1,.68-.48l.51-.09a6.37,6.37,0,0,1,.65-.09l.64-.06.52,0,6.51,0a1.07,1.07,0,0,0,.79-.33,2.07,2.07,0,0,0,.46-.73,4,4,0,0,0,.22-.86A5.6,5.6,0,0,0,116.07,14.77Zm-5.88-1c0,.23-.09.29-.12.31a1,1,0,0,1-.43.14,3.84,3.84,0,0,1-.59,0c-.22,0-.4,0-.53,0H108a5.65,5.65,0,0,1-.58,0,1.53,1.53,0,0,1-.5-.14.5.5,0,0,1-.22-.19,3.9,3.9,0,0,1,.79-1,1.73,1.73,0,0,1,1.2-.39,1.83,1.83,0,0,1,1.12.31A1.13,1.13,0,0,1,110.19,13.74Z"/><path class="cls-1" d="M118.23,16.52a11.42,11.42,0,0,0-.86,4.37,8,8,0,0,0,.45,2.76,6,6,0,0,0,1.32,2.12,6.15,6.15,0,0,0,2.09,1.38,7.16,7.16,0,0,0,2.74.49,10.57,10.57,0,0,0,2.68-.44,14.06,14.06,0,0,0,3-1.26A10.25,10.25,0,0,0,132.16,24a3.64,3.64,0,0,0,1.07-2.52,1,1,0,0,0-.37-.86,2.46,2.46,0,0,0-1.12-.4,2.2,2.2,0,0,0-1.67.54,6.79,6.79,0,0,0-1.14,1.46l-.16.24a4.51,4.51,0,0,1-1.27,1.13l-.24.17a3.29,3.29,0,0,1-2,.57,1.8,1.8,0,0,1-1.33-.49,3,3,0,0,1-.73-1.3,6.49,6.49,0,0,1-.2-1.74,7.46,7.46,0,0,1,.24-1.74,4.14,4.14,0,0,1,.6-1.32.94.94,0,0,1,.77-.47h8.87a1,1,0,0,0,.88-.64,3.55,3.55,0,0,0,.37-1.39,2.13,2.13,0,0,1,0-.27,3.54,3.54,0,0,0,0-1.15,4.09,4.09,0,0,0-.61-1.47l-.06-.12a4.37,4.37,0,0,0-1.21-1.46l-.08-.06a4.62,4.62,0,0,0-2.15-1.11,2,2,0,0,0-.76.12,3,3,0,0,1-.51.11.76.76,0,0,1-.38-.18,1,1,0,0,0-.57-.24,10.34,10.34,0,0,0-4.36.93,11.22,11.22,0,0,0-3.51,2.5A11.65,11.65,0,0,0,118.23,16.52Zm9.54-4.25a1.75,1.75,0,0,1,.53.26,2,2,0,0,1,.42.4.68.68,0,0,1,.15.43.7.7,0,0,1-.12.33.39.39,0,0,1-.21.19l-2.92.25A3.09,3.09,0,0,1,126,12.8a1.29,1.29,0,0,1,1.27-.61A1.75,1.75,0,0,1,127.77,12.27Z"/><path class="cls-1" d="M146.16,6.18a11.27,11.27,0,0,0,.33-1.57,4.33,4.33,0,0,0,0-1.35C146.42,2.88,144-.9,142.79.2c-.4.38-1.32,3.17-2.34,6.66q-.42-.29-1-.69C137.05,4.38,133,1.34,129,1.47c-3.51.07-6.36,1.87-6.72,3.43a1.24,1.24,0,0,0,.68,1.45,1.07,1.07,0,0,0,.84,0,12.77,12.77,0,0,1,1.7-.4A13,13,0,0,1,128,5.72a16.51,16.51,0,0,1,4.88.81,41.89,41.89,0,0,1,6.83,3c-1.75,6.2-3.53,13.17-3.53,13.17a2.31,2.31,0,0,0,0,.46v.46a4.39,4.39,0,0,0,.42,2A3.33,3.33,0,0,0,137.64,27a4.65,4.65,0,0,0,1.66.68,9.83,9.83,0,0,0,2,.19c.32,0,.68,0,1.09-.06a4.08,4.08,0,0,0,1.13-.29,2.44,2.44,0,0,0,.9-.61,1.48,1.48,0,0,0,.37-1,.82.82,0,0,0-.42-.74,4.48,4.48,0,0,0-.93-.46,9.42,9.42,0,0,1-.94-.41,3.51,3.51,0,0,1-1.05-1.38l.21-1.2c.15-.58.28-1.08.4-1.5l.39-1.5s1.09-3.72,1.91-6.64a12.57,12.57,0,0,0,4.86,1.36h.11a6.09,6.09,0,0,0,3.05-.83A3.21,3.21,0,0,0,154,9.64a2.67,2.67,0,0,0-1.24-2.21,2.44,2.44,0,0,0-2.33,0,3.08,3.08,0,0,0-.71.59,3.24,3.24,0,0,1-2.49,1.22,7.77,7.77,0,0,1-2-.28,3.21,3.21,0,0,0,.08-.43C145.28,8.31,146,6.7,146.16,6.18ZM139.4,20.76c0-.09,0-.13.08-.13a.22.22,0,0,1,.08.15Z"/><path class="cls-1" d="M61.43,3.44a3.52,3.52,0,0,1,1.67.43A8.92,8.92,0,0,1,64.66,5a16.44,16.44,0,0,1,1.41,1.48l1.21,1.47,0,.06h.07a1.7,1.7,0,0,0,.42.05h.38c.72,0,1.08-.11,1.2-.38a3.77,3.77,0,0,0,.12-1.19V6a2.74,2.74,0,0,0,0-.5,11.55,11.55,0,0,0-.28-1.4,14,14,0,0,0-.41-1.4,5,5,0,0,0-.72-1.34,2.53,2.53,0,0,0-1-.75,4.37,4.37,0,0,0-1.17-.3L64.52.19c-.44,0-.87,0-1.31,0s-.89,0-1.34,0H60.31a8.31,8.31,0,0,0-2.9.51A7.18,7.18,0,0,0,55,2.08,6.67,6.67,0,0,0,53.36,4.4a5.84,5.84,0,0,0-.42,2.7,4.09,4.09,0,0,0,.66,2.38l.19.34a5.56,5.56,0,0,0,1.61,1.95l.32.36c.31.34.74.82,1.07,1.12a5.65,5.65,0,0,0,.61.45,2.58,2.58,0,0,1,1,.93,7.15,7.15,0,0,0,1.49,1.91,6.16,6.16,0,0,1,1.37,1.74,6.6,6.6,0,0,0,.24,1.3,5.67,5.67,0,0,1,.25,1.48A4,4,0,0,1,61,23l-.22.37a6.2,6.2,0,0,1-5.34,3.18,6,6,0,0,1-3.86-1.26,4.66,4.66,0,0,1-1.54-3.82,5.39,5.39,0,0,1,.25-1.94,1.63,1.63,0,0,1,.59-.74,2.86,2.86,0,0,0,.3-.22,1.4,1.4,0,0,1,.56-.32A.81.81,0,0,0,52.2,18a.44.44,0,0,1,.42-.16h.08c.43-.14.78-.13.93,0a.34.34,0,0,1,0,.34c-.05.11-.13.25-.21.39A2.37,2.37,0,0,0,53,19.8a4.67,4.67,0,0,0,.3,1.44,2.48,2.48,0,0,0,.83,1.08,2.57,2.57,0,0,0,1.57.42,2.65,2.65,0,0,0,2.32-1,4.33,4.33,0,0,0,.71-2.54,4.23,4.23,0,0,0-1-2.91,5.17,5.17,0,0,0-2.44-1.56,7.38,7.38,0,0,0-3.13-.22,8,8,0,0,0-3.12,1.07,6.24,6.24,0,0,0-2.17,2.22,6.47,6.47,0,0,0-1,3.56,7.76,7.76,0,0,0,3,6.36l.22.16a7.62,7.62,0,0,0,2.62,1.52,12.62,12.62,0,0,0,3.51.5,13.85,13.85,0,0,0,4.39-.74,13.07,13.07,0,0,0,4-2.18,11.15,11.15,0,0,0,2.89-3.48c1.36-2.55.74-7.41-1.23-9.64a55.43,55.43,0,0,0-4.14-4.15,11.19,11.19,0,0,1-1.59-1.77,3.54,3.54,0,0,1-.61-2A2.26,2.26,0,0,1,59.7,4.1,2.48,2.48,0,0,1,61.43,3.44Z"/><path class="cls-1" d="M49.29,82.35h.12a29,29,0,0,1,4.45.11l.33,0a6.91,6.91,0,0,0,1.8-.79,7.57,7.57,0,0,1,1.27,3.45c0,1.47-.1,2.22-.42,2.26q-3.24-2.25-5.77-2c-2.28.25-3.71,2-4.31,5.27a6.62,6.62,0,0,0,0,1.1l.09.79q.4,3.67,4.66,4l.33,0a8.37,8.37,0,0,0,4.9-2.83c.28-.9.52-1.36.74-1.39a.8.8,0,0,1,.74.72l.29,2.67c.07,1.92-.08,2.91-.44,3a4.5,4.5,0,0,0-1.49-.34,59.5,59.5,0,0,0-6.09,1.17,9.89,9.89,0,0,1-5.84-1.67,9.75,9.75,0,0,1-3-5.46l-.1-.88q-.63-5.81,4.86-8.34A10.87,10.87,0,0,1,49.29,82.35Z"/><path class="cls-1" d="M70.78,80.5l1.29-.08Q78,80,80.13,88l.1,1.64q.36,5.6-6.84,7.75a11.41,11.41,0,0,1-1.4.18l-1.4.09a8.65,8.65,0,0,1-6.18-2,9.58,9.58,0,0,1-2.55-6l0-.58q-.16-2.61,2.64-5.92A9.76,9.76,0,0,1,70.78,80.5Zm-3.62,9.28q.27,4.08,3.44,4.74l1.08-.07q2.7-.18,3.33-5.37A6.87,6.87,0,0,1,75,88q-.21-3.35-3.93-4H71a3.54,3.54,0,0,0-3.29,2.55A8.22,8.22,0,0,0,67.16,89.78Z"/><path class="cls-1" d="M94,79.6l1.3,0q6-.09,7.66,8l0,1.65q.08,5.59-7.23,7.38a11.18,11.18,0,0,1-1.41.12l-1.4,0a8.66,8.66,0,0,1-6.07-2.35,9.66,9.66,0,0,1-2.25-6.08v-.58q0-2.61,2.93-5.77A9.68,9.68,0,0,1,94,79.6ZM89.9,88.68c0,2.72,1.1,4.36,3.19,4.91l1.08,0q2.7,0,3.59-5.19a8.46,8.46,0,0,1,.09-1.07q0-3.34-3.72-4.22H94a3.54,3.54,0,0,0-3.42,2.37A8.26,8.26,0,0,0,89.9,88.68Z"/><path class="cls-1" d="M108.78,79.65l1.44,0a20,20,0,0,1,4.29.68c0,.23-.35.68-1,1.36,0,.21,0,.31-.13.3l.51,4.06H114c3.18-2.26,4.79-3.65,4.81-4.16a6.44,6.44,0,0,0-1.17-1.15v-.3c.21-.26,1.4-.35,3.56-.26l.67,0c2.94.25,4.41.51,4.4.78a18.13,18.13,0,0,1-2.72,1.61c-2.52,2.15-3.79,3.37-3.81,3.68v.1c0,.19,1.35,2.52,4.06,7,0,.28.7,1.09,2.12,2.41l.19.71v.1c-.18.33-.74.47-1.68.44l-1.21,0q-2-.08-5.1-.3l-.43-.21a7.58,7.58,0,0,0,1-1.89q0-.51-3.58-5a.65.65,0,0,0-.54-.33A3,3,0,0,0,113.07,92c-.08,2,.2,3.39.83,4.18,0,.46-1.5.64-4.45.52h-.34q-2.33-.09-2.31-.39v-.1a15.45,15.45,0,0,0,1.56-3.07q.17-11.88-.64-11.92c-.51-.3-.75-.52-.75-.64v-.29A2.37,2.37,0,0,1,108.78,79.65Z"/><path class="cls-1" d="M138.29,81.28l.45,0q.22,0,.21.21l0,.2c0,.29-.47.76-1.35,1.42a5.92,5.92,0,0,0-.17.81q-1,12.74,0,12.81a2.29,2.29,0,0,1,.48,1.15.76.76,0,0,1-.82.34l-5.72-.44c-.82-.06-1.22-.2-1.21-.4l0-.3,1.41-2.23v-.1q.15-1.92.24-8.93c.13-.75.23-1.62.31-2.62a11.49,11.49,0,0,0-1.54-1.95l0-.2c0-.13.24-.22.69-.24,1.48.18,2.49.28,3,.33C136.28,81.19,137.59,81.23,138.29,81.28Z"/><path class="cls-1" d="M156.47,83l.54.06c.72.08,1.05,1,1,2.89,0,.78,0,1.34-.08,1.69v.09c0,.09-.21.24-.6.44-.27,0-.88-.53-1.82-1.51-1.62-.44-2.59-.68-2.9-.71l-.54-.06c-.59-.07-1,1-1.24,3.14a25.69,25.69,0,0,0,3.24.66,4.48,4.48,0,0,1,1.62-.71c.3,0,.38,1.23.26,3.6,0,.25-.27.49-.74.71l-1.43-1-.23,0c-2.06,0-3.1.13-3.13.35a1,1,0,0,0-.16.47L150,95.42c-.07.59.34,1,1.2,1.12l1.85.21a4.54,4.54,0,0,0,3.76-1l.46-.24a3.45,3.45,0,0,1,.15,1.61l-.08.78c-.32,1.36-.76,2-1.32,1.94-1.11-.12-2.38-.29-3.82-.52-4.45-.23-7-.38-7.56-.45-1-.2-1.49-.42-1.47-.67l0-.29c0-.24.48-.69,1.35-1.33.31,0,.81-1.83,1.52-5.6.27-4.67.24-7-.1-7.06-1-.53-1.52-1-1.62-1.28l0-.19c0-.18.4-.31,1.14-.38,1.76.34,2.73.51,2.93.53C153.11,83,155.79,83.08,156.47,83Z"/><path class="cls-1" d="M199.16,41.74c-.31-1.55-.62-3.1-1-4.62-.74-2.85-2.62-4.46-5.45-4.5-2.52,0-5-.32-7.56-.32a24.46,24.46,0,0,0-3.08.17c-4.87.61-9.75,4-10.55,10a10.82,10.82,0,0,0,3.3,9.91c2.25,2.09,4.66,4,6.95,6a23.82,23.82,0,0,1,2.37,2.54,8.33,8.33,0,0,1-2.74,12.56,14.62,14.62,0,0,1-6.94,1.72,16.51,16.51,0,0,1-1.72-.09c-.81-.09-1.84,0-2.48-.89s-1.39-1.72-2.07-2.59c-2.34-3-2-8,.66-10.45a2.87,2.87,0,0,1,1.64-.95c.58,0,1,.59,1.29,1.81s.57,2.76,1,4.09A3.78,3.78,0,0,0,174,68a4.31,4.31,0,0,0,2.44.7,4.23,4.23,0,0,0,4-2.34,7.1,7.1,0,0,0-3.07-9.45,13.32,13.32,0,0,0-5.51-1.18h-.3c-7.15,0-14.59,6.25-11,16.29.81,2.27,2.06,4.21,4.6,4.83a1.6,1.6,0,0,1,.92.7,4.49,4.49,0,0,0,3.12,2c2.07.4,4.17.66,6.26,1,5.6-.26,10.67-1.81,15-5.52a11.91,11.91,0,0,0,4.28-7.78,3,3,0,0,1,.49-1.24,6.15,6.15,0,0,0,.75-5.22,17.08,17.08,0,0,0-5.15-8.15c-2.18-1.82-4.2-3.82-6.23-5.82A8,8,0,0,1,182,41.62a3.9,3.9,0,0,1,3.72-4.51,4.09,4.09,0,0,1,1.78.42,14.26,14.26,0,0,1,3.2,2c1.58,1.43,3,3,4.5,4.59a2.1,2.1,0,0,0,1.57.78,2.22,2.22,0,0,0,.74-.13,2.12,2.12,0,0,0,1.6-1.87A4.4,4.4,0,0,0,199.16,41.74ZM172.27,45a6.91,6.91,0,0,1,.51-.57l.17.29-.5.6C172.39,45.16,172.24,45,172.27,45Zm-4.75,12.18.52.76-.55.9c-.14-.28-.41-.55-.4-.82S167.37,57.41,167.52,57.13Z"/><path class="cls-1" d="M109.18,119.47a1.34,1.34,0,0,0-1,.91,7.77,7.77,0,0,1-.5,1,7.55,7.55,0,0,1-.79,1.09c-.18.22-.19.52-.61.72a8.31,8.31,0,0,0-1,.71,8,8,0,0,1-1.7.93,7.49,7.49,0,0,1-2.83.57,8.71,8.71,0,0,1-3.43-.67,7.67,7.67,0,0,1-1.71-1,4.24,4.24,0,0,1-1.52-1.49c-.29-.51-.43-.65-.56-.88a9.58,9.58,0,0,1-.42-8.26,4.49,4.49,0,0,0,.36-.73c.08-.37.27-.46.42-.68a8.14,8.14,0,0,1,6.86-3.45,8.55,8.55,0,0,1,2.9.44c.25.09.47.24.71.31a2,2,0,0,1,.68.38,12.27,12.27,0,0,1,1.7,1.34,5.06,5.06,0,0,1,1.28,1.47,1.74,1.74,0,0,0,1,1A.91.91,0,0,0,110,113c.61-.58.44-2.16.19-3.38-.34-1.64-.69-3-1.46-3.37-.11,0-.08-.24-1-.34-.73-.08-1.38-.44-2.49-.52h-4.39a15.06,15.06,0,0,0-6.21,1.29,12,12,0,0,0-2.76,1.72A10.43,10.43,0,0,0,89,112.1a11.13,11.13,0,0,0-1,4.8,11.32,11.32,0,0,0,.76,4.21,10,10,0,0,0,1.13,2.09,14.59,14.59,0,0,0,1.29,1.55,5.79,5.79,0,0,0,2.13,1.53,22,22,0,0,0,3.07,1.31c.71.2,1.6.29,2.31.47a7.56,7.56,0,0,0,2.16.16,16.17,16.17,0,0,0,6.36-1.16,9.75,9.75,0,0,0,2.61-1.6,4.5,4.5,0,0,0,.73-.86,6.81,6.81,0,0,0,.63-.84,4.94,4.94,0,0,0,.45-1.68,1.71,1.71,0,0,0-.11-.92,3.63,3.63,0,0,0-.62-1A2.07,2.07,0,0,0,109.18,119.47Z"/><path class="cls-1" d="M100.93,110.45c-3.53,0-5.9,3.29-5.9,6.37s2.37,6.37,5.9,6.37,5.9-3.29,5.9-6.37S104.46,110.45,100.93,110.45Zm-2,7.27c0-.23-.08-.88,0-1.43a10.39,10.39,0,0,1,0-1.13,3,3,0,0,1,.52-1.38,2.73,2.73,0,0,0,.23-.4c.23-.44.83-.51,1.21-.51a1.34,1.34,0,0,1,.9.44c.26.26.42.78.63,1a2.09,2.09,0,0,1,.38.91,7.65,7.65,0,0,1,.06,1.57c0,.36-.15,1-.21,1.71a4.29,4.29,0,0,1-.26,1.07c-.24.79-.81,1.33-1.5,1.17-.39-.09-.58-.07-.86-.41a8.36,8.36,0,0,1-.5-.88A3.78,3.78,0,0,1,99,117.72Z"/><path class="cls-3" d="M171.42,86.58a9.41,9.41,0,0,0-3.17.92,1.78,1.78,0,0,0-.63.66,1.28,1.28,0,0,1-.21.29,1.18,1.18,0,0,1-.44.19,1.65,1.65,0,0,0-.9.53,6.35,6.35,0,0,0-.69,1.24c-.07.14-.12.27-.18.38a7.75,7.75,0,0,0-.49,3.85,8.2,8.2,0,0,0,3.18,5.61,6,6,0,0,0,4.72.79c1.1-.25,2.28-1.85,2.71-3.2a2.66,2.66,0,0,0-.37-2.68c-1.45-1.57-2.77-.55-3.48,0a3.9,3.9,0,0,1-.5.36c-1.4.82-1.79.83-1.87.81a1.89,1.89,0,0,1-.72-1.89,7.79,7.79,0,0,1,1.07-2.28,2.56,2.56,0,0,1,1-.8,5.08,5.08,0,0,1,3.44-.32,6.62,6.62,0,0,1,1.44.5,4.75,4.75,0,0,1,1.93,1.76,5.93,5.93,0,0,1,.71,1.79c.42,2,.25,4.85-1.15,6.57-1.76,2.18-4.52,3.26-6.72,3.95-1,.32-2,.59-2.9.81a3.33,3.33,0,0,0-.76.3,1.75,1.75,0,0,1-.52.2,1.55,1.55,0,0,1-.34,0,2.47,2.47,0,0,0-.6,0,19.32,19.32,0,0,1-3.33.25,24.63,24.63,0,0,1-6.26-1c-.63-.17-1.42-.3-2.17-.43-.53-.09-1.05-.17-1.49-.27l-.57-.13a42.18,42.18,0,0,0-4.51-.84c-1.57-.19-7.43-1.55-13.52-1.35-4.49.15-9.66,1.07-13.59,5.1a12.34,12.34,0,0,0-3.64,9.92,10.9,10.9,0,0,0,1.61,4.9,4.18,4.18,0,0,0,.92.91c.18.15.35.29.49.43l.42.49A4.75,4.75,0,0,0,120.5,126a5.15,5.15,0,0,0,1.27.52l.64.22.6.24a8.31,8.31,0,0,0,3.22.84,10.76,10.76,0,0,0,6.48-2.28c2.95-2.34,5.13-6.49,2.95-10.07-2.27-3.73-6.23-4.75-10.08-2.62a4.87,4.87,0,0,0-1.87,2.78,2.58,2.58,0,0,0,.24,2c.63,1,1.8,2.06,4.6.33a4.47,4.47,0,0,1,3-.8,1.11,1.11,0,0,1,.72.52c1.11,1.8-1.59,4.2-1.62,4.22a7.51,7.51,0,0,1-6.62.74l-.58-.21a5.11,5.11,0,0,1-1.48-.69s0-.11,0-.16a1.29,1.29,0,0,0-.25-.58,6,6,0,0,1-1.24-3.32c-.2-2,0-4.7,1.84-6.62,2.24-2.29,5.46-3.54,10.92-3.71a60.92,60.92,0,0,1,11.74,1.13,7.36,7.36,0,0,0,.81.06,4.17,4.17,0,0,1,.94.1c.48.12,1,.27,1.45.41s.67.21,1,.3c3.3.93,6.7,1.7,10.09,2.31.46.08.91.2,1.37.31s1.19.28,1.78.37a13.55,13.55,0,0,0,3.37-.09l.27,0a18.06,18.06,0,0,0,5.68-1.66l.43-.18a21.46,21.46,0,0,0,7.67-6.24,12.25,12.25,0,0,0,2.61-10A9.73,9.73,0,0,0,171.42,86.58Z"/><path class="cls-3" d="M80.89,108.41a22.89,22.89,0,0,0-4.48-3.4,18.09,18.09,0,0,0-3.08-1.46A22.22,22.22,0,0,0,67,102.48a34.65,34.65,0,0,0-8,.28c-.81.14-1.5.31-2.19.48a22.13,22.13,0,0,1-3.47.63,5.44,5.44,0,0,0-1.56.45,6.47,6.47,0,0,1-.84.3c-.45.12-.92.2-1.4.28-.3,0-.61.09-.91.15l-1.35.28c-1.38.28-2.75.56-4.13.82a36.11,36.11,0,0,1-8.54,1c-6.18.43-11.78-1-13.15-7.25A11.53,11.53,0,0,1,21.22,96a7,7,0,0,1,3.21-4.29,5,5,0,0,1,3.24-.55,12.58,12.58,0,0,1,2.17.66,3.22,3.22,0,0,1,1.46,2.86c.15,2.09-.23,2.83-.47,3.08a.84.84,0,0,1-.62.23c-.59,0-.72-.4-.94-1.41s-.44-2-1.72-2.26c-1.87-.3-3,.28-3.47,1.72a5,5,0,0,0,.21,3.94,5.35,5.35,0,0,0,3.46,2.38,5.15,5.15,0,0,0,6-2.17,9,9,0,0,0,.34-8.74,8.9,8.9,0,0,0-8.4-4.38,9.2,9.2,0,0,0-5.84,2.65A10.91,10.91,0,0,0,17.38,95a12.37,12.37,0,0,0,.92,8.55c.82,1.65,2.67,4.54,5.91,5.35a6.59,6.59,0,0,1,1.8.93,8.65,8.65,0,0,0,2,1.07c3,.94,4.41,1.63,8,1.35,3.44-.27,4.64-.81,8.13-1.61,1.69-.39,3.3-.82,4.91-1.24s3.43-.91,5.23-1.32c.4-.09.75-.18,1.11-.28s.94-.25,1.51-.36a41.72,41.72,0,0,1,9.78-1.06,7.83,7.83,0,0,1,1.52.32,7.57,7.57,0,0,0,2,.36,5.08,5.08,0,0,1,3,1.08c.3.19.6.38.91.55a7.91,7.91,0,0,1,2.12,1.79l.67.71a8,8,0,0,0,1,.8,4.74,4.74,0,0,1,1,.88,7,7,0,0,1,1,4.82c-.14,1.42-.35,2.76-1.34,3.64a10.52,10.52,0,0,1-2.67,1.72,11.65,11.65,0,0,1-3,.65,6.61,6.61,0,0,1-4-1.43c-1.35-1.08-2.35-3.6-1.54-4.92a1.23,1.23,0,0,1,.93-.65,2.67,2.67,0,0,1,2,.82,5.18,5.18,0,0,1,.74.91c.7,1,1.65,2.32,3.46,1.62a2.69,2.69,0,0,0,1.71-2.27,5.93,5.93,0,0,0-2.24-5.07,6.2,6.2,0,0,0-5-1,7.64,7.64,0,0,0-5,3.4,7.31,7.31,0,0,0,1.67,9.76c1.34,1.17,4.54,2.87,6.49,2.9h0a15.27,15.27,0,0,0,5.32-1.06,12.53,12.53,0,0,0,2.84-1.56,4.68,4.68,0,0,0,.84-.82c.11-.13.22-.26.35-.39a9,9,0,0,0,2.53-5.72l0-.46a9.31,9.31,0,0,0-.11-3.67A13.33,13.33,0,0,0,80.89,108.41Z"/></svg>